<?xml version="1.0" encoding="utf-8"?>
<svg viewBox="-1354.521 -953.875 1189.316 1139.5588" xmlns="http://www.w3.org/2000/svg">
  <path d="M -1028.635 -175.319 C -1029.758 -175.319 -1027.711 -196.069 -1026.147 -210.537 L -1053.098 -210.537 C -1061.52 -210.537 -1068.347 -218.833 -1068.347 -229.064 L -1068.347 -360.469 C -1068.347 -370.7 -1061.52 -378.996 -1053.098 -378.996 L -793.549 -378.996 C -785.128 -378.996 -778.301 -370.7 -778.301 -360.469 L -778.301 -229.064 C -778.301 -218.833 -785.128 -210.537 -793.549 -210.537 L -1006.451 -210.537 C -1014.36 -197.15 -1027.439 -175.319 -1028.635 -175.319" style="fill: rgb(244, 250, 253); fill-opacity: 1; fill-rule: nonzero; stroke: none;" id="path14"/>
  <path d="M -781.141 -413.927 L -1040.691 -413.927 C -1049.113 -413.927 -1055.94 -405.631 -1055.94 -395.392 L -1055.94 -263.995 C -1055.94 -253.756 -1049.113 -245.46 -1040.691 -245.46 L -1013.739 -245.46 C -1015.302 -231 -1017.35 -210.25 -1016.227 -210.25 C -1015.031 -210.25 -1001.952 -232.073 -994.043 -245.46 L -781.141 -245.46 C -772.72 -245.46 -765.893 -253.756 -765.893 -263.995 L -765.893 -395.392 C -765.893 -405.631 -772.72 -413.927 -781.141 -413.927" style="fill: rgb(254, 181, 70); fill-opacity: 1; fill-rule: nonzero; stroke: none;" id="path16"/>
  <path d="M -967.461 -329.231 C -967.461 -303.575 -984.576 -282.778 -1005.688 -282.778 C -1026.801 -282.778 -1043.915 -303.575 -1043.915 -329.231 C -1043.915 -354.879 -1026.801 -375.676 -1005.688 -375.676 C -984.576 -375.676 -967.461 -354.879 -967.461 -329.231" style="fill: rgb(255, 255, 255); fill-opacity: 1; fill-rule: nonzero; stroke: none;" id="path18"/>
  <path d="M -999.64 -292.201 L -1010.863 -292.201 L -1010.863 -305.822 L -999.64 -305.822 L -999.64 -292.201" style="fill: rgb(255, 192, 187); fill-opacity: 1; fill-rule: nonzero; stroke: none;" id="path20"/>
  <path d="M -999.64 -297.659 L -999.64 -305.822 L -1010.863 -305.822 L -1010.863 -298.879 C -1008.447 -297.301 -1004.869 -296.392 -999.64 -297.659" style="fill: rgb(249, 152, 147); fill-opacity: 1; fill-rule: nonzero; stroke: none;" id="path22"/>
  <path d="M -981.941 -330.195 C -983.112 -330.895 -984.472 -330.771 -985.702 -330.016 C -985.28 -343.451 -994.312 -354.755 -1005.688 -354.28 C -1017.064 -354.755 -1026.097 -343.451 -1025.674 -330.016 C -1026.905 -330.771 -1028.265 -330.895 -1029.435 -330.195 C -1031.683 -328.85 -1032.381 -325.002 -1030.995 -321.589 C -1029.61 -318.183 -1026.665 -316.512 -1024.418 -317.857 C -1024.107 -318.044 -1023.828 -318.284 -1023.576 -318.557 C -1022.289 -307.447 -1014.65 -299.12 -1005.688 -299.276 C -996.726 -299.12 -989.088 -307.447 -987.8 -318.557 C -987.549 -318.284 -987.27 -318.044 -986.959 -317.857 C -984.711 -316.512 -981.767 -318.183 -980.381 -321.589 C -978.996 -325.002 -979.695 -328.85 -981.941 -330.195" style="fill: rgb(255, 192, 187); fill-opacity: 1; fill-rule: nonzero; stroke: none;" id="path24"/>
  <path d="M -1019.356 -359.606 C -1019.356 -359.606 -1013.723 -365.398 -1000.919 -364.458 C -988.115 -363.525 -985.678 -355.408 -984.953 -343.809 L -985.702 -330.016 C -985.702 -330.016 -989.027 -334.168 -993.355 -345.682 C -993.355 -345.682 -1000.524 -335.909 -1003.646 -337.068 C -1006.769 -338.226 -1002.465 -345.262 -1002.465 -345.262 C -1002.465 -345.262 -1017.072 -329.993 -1025.674 -330.016 C -1025.674 -330.016 -1030.227 -347.89 -1023.837 -354.444 C -1023.837 -354.444 -1028.65 -354.164 -1028.905 -355.315 C -1029.16 -356.465 -1026.609 -358.191 -1021.982 -357.538 C -1021.982 -357.538 -1025.279 -365.375 -1023.437 -366.191 C -1021.596 -367.007 -1019.356 -359.606 -1019.356 -359.606" style="fill: rgb(7, 8, 91); fill-opacity: 1; fill-rule: nonzero; stroke: none;" id="path26"/>
  <path d="M -998.344 -314.327 C -998.837 -311.63 -1001.375 -309.515 -1004.485 -309.398 C -1007.596 -309.281 -1010.236 -311.21 -1010.863 -313.861 L -998.344 -314.327" style="fill: rgb(255, 255, 255); fill-opacity: 1; fill-rule: nonzero; stroke: none;" id="path28"/>
  <path d="M -803.667 -367.987 L -952.8 -367.987 C -953.631 -367.987 -954.305 -368.803 -954.305 -369.814 L -954.305 -374.23 C -954.305 -375.241 -953.631 -376.057 -952.8 -376.057 L -803.667 -376.057 C -802.835 -376.057 -802.162 -375.241 -802.162 -374.23 L -802.162 -369.814 C -802.162 -368.803 -802.835 -367.987 -803.667 -367.987" style="fill: rgb(255, 255, 255); fill-opacity: 1; fill-rule: nonzero; stroke: none;" id="path30"/>
  <path d="M -919.88 -346.685 L -952.8 -346.685 C -953.631 -346.685 -954.305 -347.509 -954.305 -348.519 L -954.305 -352.927 C -954.305 -353.939 -953.631 -354.755 -952.8 -354.755 L -919.88 -354.755 C -919.049 -354.755 -918.375 -353.939 -918.375 -352.927 L -918.375 -348.519 C -918.375 -347.509 -919.049 -346.685 -919.88 -346.685" style="fill: rgb(255, 255, 255); fill-opacity: 1; fill-rule: nonzero; stroke: none;" id="path32"/>
  <path d="M -803.667 -346.685 L -903.309 -346.685 C -904.141 -346.685 -904.814 -347.509 -904.814 -348.519 L -904.814 -352.927 C -904.814 -353.939 -904.141 -354.755 -903.309 -354.755 L -803.667 -354.755 C -802.835 -354.755 -802.162 -353.939 -802.162 -352.927 L -802.162 -348.519 C -802.162 -347.509 -802.835 -346.685 -803.667 -346.685" style="fill: rgb(255, 255, 255); fill-opacity: 1; fill-rule: nonzero; stroke: none;" id="path34"/>
  <path d="M -877.213 -325.39 L -952.8 -325.39 C -953.631 -325.39 -954.305 -326.207 -954.305 -327.217 L -954.305 -331.634 C -954.305 -332.637 -953.631 -333.46 -952.8 -333.46 L -877.213 -333.46 C -876.381 -333.46 -875.708 -332.637 -875.708 -331.634 L -875.708 -327.217 C -875.708 -326.207 -876.381 -325.39 -877.213 -325.39" style="fill: rgb(255, 255, 255); fill-opacity: 1; fill-rule: nonzero; stroke: none;" id="path36"/>
  <path d="M -803.667 -325.39 L -862.706 -325.39 C -863.537 -325.39 -864.211 -326.207 -864.211 -327.217 L -864.211 -331.634 C -864.211 -332.637 -863.537 -333.46 -862.706 -333.46 L -803.667 -333.46 C -802.835 -333.46 -802.162 -332.644 -802.162 -331.634 L -802.162 -327.217 C -802.162 -326.207 -802.835 -325.39 -803.667 -325.39" style="fill: rgb(255, 255, 255); fill-opacity: 1; fill-rule: nonzero; stroke: none;" id="path38"/>
  <path d="M -803.667 -304.088 L -952.8 -304.088 C -953.631 -304.088 -954.305 -304.905 -954.305 -305.915 L -954.305 -310.331 C -954.305 -311.342 -953.631 -312.158 -952.8 -312.158 L -803.667 -312.158 C -802.835 -312.158 -802.162 -311.342 -802.162 -310.331 L -802.162 -305.915 C -802.162 -304.905 -802.835 -304.088 -803.667 -304.088" style="fill: rgb(255, 255, 255); fill-opacity: 1; fill-rule: nonzero; stroke: none;" id="path40"/>
  <path d="M -654.664 -580.34 L -645.208 -508.27 L -625.227 -604.355 C -625.227 -604.355 -653.225 -620.869 -654.466 -614.859 C -655.701 -608.857 -654.664 -580.34 -654.664 -580.34" style="fill: rgb(7, 8, 91); fill-opacity: 1; fill-rule: nonzero; stroke: none;" id="path42"/>
  <path d="M -495.718 -425.223 L -487.075 -300.628 L -577.556 -305.876 L -567.12 -416.213 L -495.718 -425.223" style="fill: rgb(255, 192, 187); fill-opacity: 1; fill-rule: nonzero; stroke: none;" id="path44"/>
  <path d="M -572.085 -363.742 L -567.12 -416.213 L -495.718 -425.223 L -492.725 -382.074 C -506.921 -364.885 -532.45 -347.066 -572.085 -363.742" style="fill: rgb(249, 152, 147); fill-opacity: 1; fill-rule: nonzero; stroke: none;" id="path46"/>
  <path d="M -627.562 -509.172 C -622.117 -495.497 -625.009 -480.127 -634.005 -474.84 C -643.007 -469.546 -654.715 -476.348 -660.154 -490.016 C -665.598 -503.691 -662.713 -519.062 -653.711 -524.348 C -644.709 -529.635 -633 -522.84 -627.562 -509.172" style="fill: rgb(249, 152, 147); fill-opacity: 1; fill-rule: nonzero; stroke: none;" id="path48"/>
  <path d="M -628.215 -445.958 C -634.689 -463.582 -638.477 -482.537 -640.691 -499.151 C -641.164 -502.719 -641.804 -506.241 -642.501 -509.755 C -645.317 -523.928 -646.065 -539.135 -644.114 -554.98 C -637.824 -605.965 -604.069 -646.603 -562.047 -653.662 C -505.431 -663.178 -455.565 -612.239 -452.039 -544.779 C -446.217 -549.32 -439.487 -550.782 -433.351 -548.006 C -421.579 -542.673 -416.48 -523.85 -421.962 -505.961 C -427.452 -488.08 -441.444 -477.903 -453.217 -483.237 C -454.848 -483.983 -456.339 -485.002 -457.708 -486.222 C -459.525 -428.449 -495.923 -381.157 -542.392 -378.513 C -565.118 -377.223 -586.263 -386.848 -602.674 -403.711 C -613.192 -413.095 -623.115 -431.372 -628.215 -445.958" style="fill: rgb(255, 192, 187); fill-opacity: 1; fill-rule: nonzero; stroke: none;" id="path50"/>
  <path d="M -570.21 -536.826 C -570.396 -530.094 -570.441 -523.524 -570.729 -517.087 C -571.055 -511.139 -571.592 -502.579 -574.644 -498.047 C -575.092 -497.27 -577.491 -494.121 -577.549 -489.347 C -577.671 -484.892 -575.738 -480.904 -573.326 -478.471 C -568.387 -473.417 -561.989 -472.943 -556.692 -474.529 C -562.098 -475.687 -567.274 -477.95 -570.293 -482.234 C -571.688 -484.372 -572.616 -486.751 -572.29 -488.982 C -572.053 -491.547 -570.876 -492.885 -570.454 -493.662 C -568.95 -496.08 -567.139 -498.599 -566.372 -506.824 C -566.097 -510.354 -566.141 -513.782 -566.404 -517.18 C -566.941 -523.951 -568.131 -530.552 -570.21 -536.826" style="fill: rgb(249, 152, 147); fill-opacity: 1; fill-rule: nonzero; stroke: none;" id="path52"/>
  <path d="M -538.144 -527.932 C -537.926 -522.272 -533.972 -517.903 -529.315 -518.167 C -524.663 -518.432 -521.061 -523.228 -521.279 -528.888 C -521.503 -534.548 -525.45 -538.918 -530.108 -538.653 C -534.759 -538.389 -538.361 -533.584 -538.144 -527.932" style="fill: rgb(51, 51, 51); fill-opacity: 1; fill-rule: nonzero; stroke: none;" id="path54"/>
  <path d="M -610.313 -518.043 C -610.096 -512.383 -606.142 -508.014 -601.484 -508.278 C -596.833 -508.543 -593.23 -513.347 -593.454 -518.999 C -593.672 -524.659 -597.62 -529.028 -602.277 -528.764 C -606.935 -528.499 -610.531 -523.703 -610.313 -518.043" style="fill: rgb(51, 51, 51); fill-opacity: 1; fill-rule: nonzero; stroke: none;" id="path56"/>
  <path d="M -523.985 -458.498 C -532.578 -449.402 -543.755 -442.296 -554.849 -440.663 C -566.851 -438.821 -577.453 -443.267 -587.671 -450.91 C -578.157 -441.2 -567.139 -436.286 -554.58 -437.989 C -542.347 -439.925 -530.914 -448.492 -523.985 -458.498" style="fill: rgb(249, 152, 147); fill-opacity: 1; fill-rule: nonzero; stroke: none;" id="path58"/>
  <path d="M -548.732 -551.085 C -536.845 -555.555 -530.108 -555.804 -524.676 -555.003 C -512.814 -553.067 -506.141 -546.692 -502.002 -544.484 C -506.992 -555.656 -514.657 -561.619 -523.927 -563.027 C -533.966 -564.488 -543.787 -558.976 -548.732 -551.085" style="fill: rgb(7, 8, 91); fill-opacity: 1; fill-rule: nonzero; stroke: none;" id="path60"/>
  <path d="M -585.911 -546 C -592.009 -552.546 -602.514 -555.671 -612.156 -551.855 C -620.991 -548.301 -627.581 -540.667 -630.703 -528.499 C -626.98 -531.648 -621.471 -539.462 -610.14 -544.158 C -604.952 -546.225 -598.317 -547.578 -585.911 -546" style="fill: rgb(7, 8, 91); fill-opacity: 1; fill-rule: nonzero; stroke: none;" id="path62"/>
  <path d="M -587.658 -350.315 C -587.658 -350.315 -672.809 -337.176 -694.434 -315.82 C -716.059 -294.471 -820.129 19.215 -820.129 19.215 L -733.628 142.394 L -549.814 144.035 C -549.814 144.035 -411.956 234.367 -325.455 148.964 C -238.954 63.561 -283.555 -233.705 -333.568 -297.76 C -383.574 -361.806 -472.775 -360.166 -472.775 -360.166 C -472.775 -360.166 -553.87 -291.19 -587.658 -350.315" style="fill: rgb(2, 204, 192); fill-opacity: 1; fill-rule: nonzero; stroke: none;" id="path64"/>
  <path d="M -422.769 -194.288 C -425.814 -177.193 -427.676 -159.84 -429.007 -142.432 C -429.736 -133.725 -430.056 -124.986 -430.465 -116.248 C -430.683 -107.502 -430.849 -98.748 -430.753 -89.986 C -430.472 -72.47 -429.678 -54.899 -427.202 -37.562 C -424.784 -20.287 -421.265 -2.958 -414.656 12.646 C -419.102 -4 -421.31 -21.111 -422.903 -38.27 C -424.471 -55.444 -425.014 -72.765 -425.2 -90.072 C -425.494 -107.393 -425.142 -124.738 -424.695 -142.106 C -424.183 -159.467 -423.53 -176.843 -422.769 -194.288" style="fill: rgb(255, 255, 255); fill-opacity: 1; fill-rule: nonzero; stroke: none;" id="path66"/>
  <path d="M -677.537 -205.787 C -681.427 -180.341 -685.547 -154.996 -689.738 -129.69 C -694.011 -104.407 -698.433 -79.171 -703.468 -54.137 C -708.452 -29.096 -713.98 -4.21 -720.679 20.179 C -724.025 32.377 -727.774 44.404 -732.163 56.082 C -736.488 67.783 -741.619 79.11 -748.497 89.015 C -740.672 80.144 -734.921 68.894 -729.719 57.559 C -724.684 46.06 -720.333 34.134 -716.59 21.959 C -712.764 9.824 -709.489 -2.554 -706.372 -14.969 C -703.378 -27.424 -700.633 -39.957 -698.074 -52.544 C -695.631 -65.169 -693.289 -77.811 -691.184 -90.515 C -689.155 -103.234 -687.159 -115.953 -685.483 -128.741 C -682.003 -154.289 -679.303 -179.983 -677.537 -205.787" style="fill: rgb(255, 255, 255); fill-opacity: 1; fill-rule: nonzero; stroke: none;" id="path68"/>
  <path d="M -720.327 71.398 C -719.783 66.204 -687.3 60.397 -675.362 59.643 C -666.315 59.075 -606.347 56.642 -585.95 55.522 L -587.447 61.897 L -587.133 90.041 L -583.787 108.7 C -601.682 110.068 -645.432 112.152 -654.542 114.344 C -666.711 117.267 -687.819 128.416 -687.819 128.416 C -687.819 128.416 -696.596 125.99 -685.438 120.144 C -676.481 115.448 -670.198 108.163 -667.537 104.556 C -666.008 102.473 -667.665 98.772 -668.778 99.121 C -699.149 108.793 -702.278 110.395 -702.278 110.395 C -702.278 110.395 -737.973 110.154 -702.476 100.404 C -681.203 94.558 -673.577 91.161 -671.683 88.261 C -670.876 87.025 -672.316 82.826 -673.609 82.725 C -692.047 81.341 -725.132 89.279 -716.065 84.078 C -708.676 79.825 -685.4 75.176 -676.353 73.419 C -675.797 73.31 -674.895 69.213 -677.371 68.964 C -694.927 67.184 -720.832 76.233 -720.327 71.398" style="fill: rgb(255, 192, 187); fill-opacity: 1; fill-rule: nonzero; stroke: none;" id="path70"/>
  <path d="M -424.342 14.994 C -431.796 17.147 -439.358 18.726 -446.844 20.638 C -461.911 23.981 -477.024 26.889 -492.187 29.47 C -507.363 31.895 -522.558 34.119 -537.798 35.907 C -552.974 37.742 -568.412 39.312 -583.435 40.331 L -585.457 40.463 L -585.898 42.593 C -587.191 48.782 -588.035 54.822 -588.675 61.011 C -589.308 67.176 -589.577 73.396 -589.571 79.615 C -589.526 85.843 -589.084 92.078 -588.24 98.235 C -587.306 104.393 -585.809 110.426 -583.794 116.203 L -583.621 116.7 L -583.288 116.964 L -566.596 130.577 C -561.036 135.117 -555.45 139.619 -549.814 144.035 C -555.047 138.942 -560.332 133.936 -565.642 128.96 L -581.17 114.398 C -582.776 108.941 -583.921 103.296 -584.548 97.535 C -585.137 91.619 -585.412 85.649 -585.265 79.67 C -585.099 73.691 -584.612 67.72 -583.928 61.789 C -583.301 56.642 -582.475 51.448 -581.433 46.48 C -574.228 46.193 -567.325 45.625 -560.249 44.996 C -552.578 44.311 -544.9 43.573 -537.248 42.593 C -521.944 40.665 -506.666 38.348 -491.464 35.394 C -476.262 32.417 -461.144 28.809 -446.16 24.51 C -438.7 22.193 -431.227 19.962 -423.882 17.14 C -416.473 14.612 -409.218 11.464 -401.988 8.338 C -409.461 10.547 -416.831 13.081 -424.342 14.994" style="fill: rgb(255, 255, 255); fill-opacity: 1; fill-rule: nonzero; stroke: none;" id="path72"/>
  <path d="M -1076.737 -137.628 L -787.053 -137.628 C -778.166 -137.628 -770.16 -131.097 -766.791 -121.107 L -678.087 141.983 L -517.926 141.983 C -513.447 141.983 -509.82 146.398 -509.82 151.84 C -509.82 157.283 -513.447 161.691 -517.926 161.691 L -980.321 161.691 C -988.861 161.691 -996.605 155.596 -1000.1 146.126 L -1093.342 -106.46 C -1098.743 -121.091 -1089.934 -137.628 -1076.737 -137.628" style="fill: rgb(7, 8, 91); fill-opacity: 1; fill-rule: nonzero; stroke: none;" id="path74"/>
  <path d="M -656.475 -648.523 C -656.475 -648.523 -684.863 -647.411 -655.074 -676.581 C -625.284 -705.751 -545.303 -739.951 -494.036 -707.057 C -494.036 -707.057 -483.786 -733.537 -468.969 -727.217 C -454.151 -720.896 -478.604 -702.672 -478.604 -702.672 C -478.604 -702.672 -459.679 -703.418 -453.908 -692.138 C -449.634 -683.796 -461.227 -683.43 -467.561 -683.803 C -456.787 -681.58 -415.488 -649.883 -436.217 -548.69 C -443.581 -550.657 -485.565 -624.639 -485.565 -624.639 C -485.565 -624.639 -581.58 -559.823 -572.085 -611.361 C -572.085 -611.361 -671.548 -535.932 -657.441 -598.237 C -657.441 -598.237 -695.899 -594.816 -656.475 -648.523" style="fill: rgb(7, 8, 91); fill-opacity: 1; fill-rule: nonzero; stroke: none;" id="path76"/>
  <path d="M -436.134 -548.084 C -436.134 -548.084 -444.087 -551.481 -452.634 -543.232 C -461.189 -534.983 -460.242 -506.016 -460.242 -506.016 C -460.242 -506.016 -501.054 -474.031 -496.749 -609.355 C -492.174 -753.323 -462.705 -597.81 -462.705 -597.81 L -436.134 -548.084" style="fill: rgb(7, 8, 91); fill-opacity: 1; fill-rule: nonzero; stroke: none;" id="path78"/>
  <path d="M -1015.872 -438.222 C -1017.387 -438.222 -1034.561 -466.98 -1044.033 -483.042 L -1278.073 -483.042 C -1288.341 -483.042 -1296.665 -493.157 -1296.665 -505.635 L -1296.665 -654.704 C -1296.665 -667.182 -1288.341 -677.296 -1278.073 -677.296 L -980.803 -677.296 C -970.534 -677.296 -962.211 -667.182 -962.211 -654.704 L -962.211 -505.635 C -962.211 -493.157 -970.534 -483.042 -980.803 -483.042 L -1019.111 -483.042 C -1017.185 -465.386 -1014.452 -438.222 -1015.872 -438.222" style="fill: rgb(244, 250, 253); fill-opacity: 1; fill-rule: nonzero; stroke: none;" id="path80"/>
  <path d="M -993.077 -715.967 L -1290.346 -715.967 C -1300.615 -715.967 -1308.939 -705.852 -1308.939 -693.374 L -1308.939 -544.305 C -1308.939 -531.827 -1300.615 -521.712 -1290.346 -521.712 L -1056.306 -521.712 C -1046.834 -505.65 -1029.661 -476.885 -1028.145 -476.885 C -1026.725 -476.885 -1029.458 -504.056 -1031.384 -521.712 L -993.077 -521.712 C -982.808 -521.712 -974.484 -531.827 -974.484 -544.305 L -974.484 -693.374 C -974.484 -705.852 -982.808 -715.967 -993.077 -715.967" style="fill: rgb(255, 91, 126); fill-opacity: 1; fill-rule: nonzero; stroke: none;" id="path82"/>
  <path d="M -1198.528 -618.839 C -1198.528 -587.555 -1219.395 -562.202 -1245.137 -562.202 C -1270.879 -562.202 -1291.746 -587.555 -1291.746 -618.839 C -1291.746 -650.116 -1270.879 -675.477 -1245.137 -675.477 C -1219.395 -675.477 -1198.528 -650.116 -1198.528 -618.839" style="fill: rgb(255, 255, 255); fill-opacity: 1; fill-rule: nonzero; stroke: none;" id="path84"/>
  <path d="M -1269.399 -617.347 C -1269.399 -617.347 -1274.021 -640.399 -1263.011 -649.028 C -1251.999 -657.657 -1240.243 -659.632 -1232.209 -654.657 C -1221.073 -647.769 -1216.497 -629.141 -1220.061 -618.839 L -1249.62 -627.858 L -1269.399 -617.347" style="fill: rgb(4, 7, 68); fill-opacity: 1; fill-rule: nonzero; stroke: none;" id="path86"/>
  <path d="M -1237.762 -573.693 L -1251.448 -573.693 L -1251.448 -590.299 L -1237.762 -590.299 L -1237.762 -573.693" style="fill: rgb(255, 192, 187); fill-opacity: 1; fill-rule: nonzero; stroke: none;" id="path88"/>
  <path d="M -1237.762 -580.34 L -1237.762 -590.299 L -1251.448 -590.299 L -1251.448 -581.825 C -1248.501 -579.912 -1244.139 -578.801 -1237.762 -580.34" style="fill: rgb(249, 152, 147); fill-opacity: 1; fill-rule: nonzero; stroke: none;" id="path90"/>
  <path d="M -1216.182 -620.021 C -1217.61 -620.877 -1219.268 -620.721 -1220.768 -619.796 C -1220.253 -636.185 -1231.266 -649.961 -1245.137 -649.378 C -1259.009 -649.961 -1270.021 -636.185 -1269.506 -619.796 C -1271.006 -620.721 -1272.664 -620.877 -1274.092 -620.021 C -1276.831 -618.381 -1277.683 -613.685 -1275.994 -609.526 C -1274.304 -605.374 -1270.714 -603.329 -1267.975 -604.97 C -1267.594 -605.203 -1267.254 -605.491 -1266.948 -605.825 C -1265.378 -592.282 -1256.065 -582.128 -1245.137 -582.315 C -1234.209 -582.128 -1224.897 -592.282 -1223.326 -605.825 C -1223.02 -605.491 -1222.681 -605.203 -1222.3 -604.97 C -1219.561 -603.329 -1215.97 -605.374 -1214.281 -609.526 C -1212.592 -613.685 -1213.443 -618.381 -1216.182 -620.021" style="fill: rgb(255, 192, 187); fill-opacity: 1; fill-rule: nonzero; stroke: none;" id="path92"/>
  <path d="M -1236.183 -600.663 C -1236.784 -597.382 -1239.878 -594.801 -1243.671 -594.661 C -1247.463 -594.521 -1250.682 -596.861 -1251.448 -600.095 L -1236.183 -600.663" style="fill: rgb(255, 255, 255); fill-opacity: 1; fill-rule: nonzero; stroke: none;" id="path94"/>
  <path d="M -1269.506 -619.796 C -1269.506 -619.796 -1251.595 -626.389 -1243.756 -637.397 C -1243.756 -637.397 -1245.974 -624.134 -1247.629 -622.02 C -1247.106 -621.6 -1229.74 -631.854 -1227.381 -641.323 C -1225.022 -650.793 -1245.137 -654.198 -1245.137 -654.198 C -1245.137 -654.198 -1252.03 -650.63 -1252.379 -650.42 C -1252.728 -650.21 -1259.193 -649.292 -1259.934 -647.287 C -1260.899 -644.682 -1265.464 -644.449 -1265.464 -644.449 L -1268.345 -637.164 L -1270.362 -629.498 L -1269.506 -619.796" style="fill: rgb(4, 7, 68); fill-opacity: 1; fill-rule: nonzero; stroke: none;" id="path96"/>
  <path d="M -1284.179 -649.782 C -1280.222 -647.846 -1275.653 -646.953 -1270.916 -648.717 C -1260.464 -652.62 -1256.323 -651.104 -1254.933 -650.148 C -1254.097 -649.572 -1253.103 -649.347 -1252.191 -649.712 C -1251.16 -650.132 -1250.203 -651.267 -1250.5 -654.128 C -1250.5 -654.128 -1250.087 -666.194 -1258.6 -673.074 C -1269.22 -669.188 -1278.242 -660.814 -1284.179 -649.782" style="fill: rgb(4, 7, 68); fill-opacity: 1; fill-rule: nonzero; stroke: none;" id="path98"/>
  <path d="M -1261.689 -650.575 L -1261.691 -650.575 C -1262.001 -651.073 -1261.903 -651.781 -1261.476 -652.122 C -1259.729 -653.522 -1255.238 -656.655 -1249.846 -656.997 C -1249.34 -657.028 -1248.916 -656.53 -1248.916 -655.916 C -1248.916 -655.341 -1249.286 -654.874 -1249.757 -654.843 C -1254.686 -654.532 -1258.912 -651.578 -1260.504 -650.319 C -1260.892 -650.008 -1261.409 -650.125 -1261.689 -650.575" style="fill: rgb(254, 181, 70); fill-opacity: 1; fill-rule: nonzero; stroke: none;" id="path100"/>
  <path d="M -1128.834 -657.79 L -1187.603 -657.79 C -1188.617 -657.79 -1189.439 -658.785 -1189.439 -660.021 L -1189.439 -665.401 C -1189.439 -666.63 -1188.617 -667.632 -1187.603 -667.632 L -1128.834 -667.632 C -1127.82 -667.632 -1126.998 -666.63 -1126.998 -665.401 L -1126.998 -660.021 C -1126.998 -658.785 -1127.82 -657.79 -1128.834 -657.79" style="fill: rgb(255, 255, 255); fill-opacity: 1; fill-rule: nonzero; stroke: none;" id="path102"/>
  <path d="M -1149.097 -631.816 L -1187.603 -631.816 C -1188.617 -631.816 -1189.439 -632.818 -1189.439 -634.046 L -1189.439 -639.434 C -1189.439 -640.663 -1188.617 -641.658 -1187.603 -641.658 L -1149.097 -641.658 C -1148.083 -641.658 -1147.261 -640.663 -1147.261 -639.434 L -1147.261 -634.046 C -1147.261 -632.818 -1148.083 -631.816 -1149.097 -631.816" style="fill: rgb(255, 255, 255); fill-opacity: 1; fill-rule: nonzero; stroke: none;" id="path104"/>
  <path d="M -1089.92 -631.816 L -1138.153 -631.816 C -1139.166 -631.816 -1139.988 -632.818 -1139.988 -634.046 L -1139.988 -639.434 C -1139.988 -640.663 -1139.166 -641.658 -1138.153 -641.658 L -1089.921 -641.658 C -1088.907 -641.658 -1088.085 -640.663 -1088.085 -639.434 L -1088.085 -634.046 C -1088.085 -632.818 -1088.907 -631.816 -1089.92 -631.816" style="fill: rgb(255, 255, 255); fill-opacity: 1; fill-rule: nonzero; stroke: none;" id="path106"/>
  <path d="M -1012.68 -657.79 L -1114.816 -657.79 C -1115.83 -657.79 -1116.651 -658.785 -1116.651 -660.021 L -1116.651 -665.401 C -1116.651 -666.63 -1115.83 -667.632 -1114.816 -667.632 L -1012.68 -667.632 C -1011.667 -667.632 -1010.845 -666.63 -1010.845 -665.401 L -1010.845 -660.021 C -1010.845 -658.785 -1011.667 -657.79 -1012.68 -657.79" style="fill: rgb(255, 255, 255); fill-opacity: 1; fill-rule: nonzero; stroke: none;" id="path108"/>
  <path d="M -1012.68 -580.915 L -1187.603 -580.915 C -1188.617 -580.915 -1189.439 -581.911 -1189.439 -583.147 L -1189.439 -588.527 C -1189.439 -589.755 -1188.617 -590.758 -1187.603 -590.758 L -1012.68 -590.758 C -1011.667 -590.758 -1010.845 -589.755 -1010.845 -588.527 L -1010.845 -583.147 C -1010.845 -581.911 -1011.667 -580.915 -1012.68 -580.915" style="fill: rgb(255, 255, 255); fill-opacity: 1; fill-rule: nonzero; stroke: none;" id="path110"/>
  <path d="M -1099.012 -605.848 L -1187.603 -605.848 C -1188.617 -605.848 -1189.439 -606.851 -1189.439 -608.08 L -1189.439 -613.46 C -1189.439 -614.696 -1188.617 -615.691 -1187.603 -615.691 L -1099.012 -615.691 C -1097.998 -615.691 -1097.177 -614.696 -1097.177 -613.46 L -1097.177 -608.08 C -1097.177 -606.851 -1097.998 -605.848 -1099.012 -605.848" style="fill: rgb(255, 255, 255); fill-opacity: 1; fill-rule: nonzero; stroke: none;" id="path112"/>
  <path d="M -1012.68 -605.848 L -1081.845 -605.848 C -1082.86 -605.848 -1083.681 -606.851 -1083.681 -608.08 L -1083.681 -613.46 C -1083.681 -614.696 -1082.86 -615.691 -1081.845 -615.691 L -1012.68 -615.691 C -1011.667 -615.691 -1010.845 -614.696 -1010.845 -613.46 L -1010.845 -608.08 C -1010.845 -606.851 -1011.667 -605.848 -1012.68 -605.848" style="fill: rgb(255, 255, 255); fill-opacity: 1; fill-rule: nonzero; stroke: none;" id="path114"/>
  <path d="M -897.095 8.059 C -894.241 24.502 -899.948 39.888 -909.84 42.422 C -919.732 44.956 -930.065 33.684 -932.919 17.24 C -935.772 0.797 -930.066 -14.589 -920.173 -17.123 C -910.281 -19.658 -899.948 -8.385 -897.095 8.059" style="fill: rgb(255, 255, 255); fill-opacity: 1; fill-rule: nonzero; stroke: none;" id="path116"/>
  <path d="M -1011.995 -878.439 L -1005.798 -821.7 L -1038.967 -851.127 L -1140.485 -914.147 L -1061.961 -905.416 C -1061.961 -905.416 -1021.959 -893.607 -1019.794 -891.228 C -1017.629 -888.841 -1011.995 -878.439 -1011.995 -878.439" style="fill: rgb(193, 47, 86); fill-opacity: 1; fill-rule: nonzero; stroke: none;" id="path118"/>
  <path d="M -977.224 -912.701 L -1140.485 -914.147 L -1011.995 -878.439 L -977.224 -912.701 Z" style="fill: rgb(255, 91, 126); fill-opacity: 1; fill-rule: nonzero; stroke: none;" id="path120"/>
  <path d="M -1064.478 -821.358 L -1021.699 -863.107 L -1140.485 -914.147 L -1064.478 -821.358 Z" style="fill: rgb(255, 91, 126); fill-opacity: 1; fill-rule: nonzero; stroke: none;" id="path122"/>
  <path d="M -810.078 -571.765 L -812.232 -575.637 C -808.933 -578.342 -805.91 -581.67 -803.247 -585.518 L -800.306 -582.509 C -803.196 -578.334 -806.484 -574.719 -810.078 -571.765" style="fill: rgb(254, 181, 70); fill-opacity: 1; fill-rule: nonzero; stroke: none;" id="path124"/>
  <path d="M -926.459 -818.295 C -931.702 -825.751 -937.835 -832.235 -944.689 -837.568 L -942.617 -841.502 C -935.445 -835.927 -929.024 -829.14 -923.536 -821.327 L -926.459 -818.295 Z M -877.924 -799.379 C -884.895 -801.968 -890.43 -803.539 -893.11 -803.694 C -896.185 -803.873 -898.995 -803.912 -901.703 -803.811 L -901.82 -808.483 C -899.011 -808.585 -896.102 -808.546 -892.927 -808.367 C -888.84 -808.126 -881.069 -805.436 -876.801 -803.85 L -877.924 -799.379 Z M -941.708 -778.435 L -945.177 -780.449 C -941.693 -789.304 -935.147 -797.055 -927.215 -801.727 L -926.686 -802.031 L -925.051 -797.802 L -925.539 -797.522 C -932.7 -793.308 -938.593 -786.35 -941.708 -778.435 Z M -907.909 -764.06 L -911.673 -765.016 C -911.176 -767.892 -910.922 -770.831 -910.916 -773.739 C -910.907 -777.844 -911.34 -782.073 -912.203 -786.326 C -912.671 -788.635 -913.275 -790.991 -913.996 -793.323 L -910.398 -794.964 C -909.623 -792.46 -908.974 -789.933 -908.47 -787.446 C -907.532 -782.828 -907.062 -778.21 -907.071 -773.732 C -907.078 -770.497 -907.359 -767.248 -907.909 -764.06 Z M -835.881 -770.233 C -841.999 -776.561 -848.623 -782.563 -855.57 -788.091 L -853.465 -792.002 C -846.384 -786.373 -839.63 -780.239 -833.389 -773.786 L -835.881 -770.233 Z M -923.909 -736.569 C -926.528 -735.784 -933.196 -735.605 -937.476 -738.707 C -940.677 -741.024 -943.342 -744.67 -945.181 -749.242 L -941.727 -751.294 C -940.194 -747.484 -938.102 -744.6 -935.508 -742.719 C -932.421 -740.487 -926.915 -740.48 -924.829 -741.109 C -924.55 -741.195 -924.443 -741.257 -924.443 -741.257 C -924.28 -741.382 -924.087 -741.537 -923.895 -741.692 L -921.761 -737.805 C -921.981 -737.627 -922.201 -737.448 -922.425 -737.277 C -922.803 -736.989 -923.29 -736.755 -923.909 -736.569 Z M -803.786 -725.522 C -807.896 -733.677 -812.799 -741.708 -818.36 -749.382 L -815.475 -752.468 C -809.767 -744.592 -804.732 -736.344 -800.506 -727.963 L -803.786 -725.522 Z M -784.065 -670.501 L -787.891 -670.027 C -787.997 -671.31 -788.12 -672.593 -788.26 -673.867 C -788.736 -678.221 -789.42 -682.606 -790.296 -686.929 C -791.103 -690.902 -792.092 -694.905 -793.235 -698.832 L -789.611 -700.386 C -788.426 -696.32 -787.4 -692.169 -786.563 -688.041 C -785.653 -683.562 -784.942 -678.999 -784.449 -674.482 C -784.306 -673.191 -784.178 -671.854 -784.065 -670.501 Z M -788.475 -609.837 L -792.143 -611.244 C -789.916 -619.858 -788.445 -629.646 -787.769 -640.32 L -783.936 -639.963 C -784.634 -628.931 -786.161 -618.793 -788.475 -609.837" style="fill: rgb(254, 181, 70); fill-opacity: 1; fill-rule: nonzero; stroke: none;" id="path126"/>
  <path d="M -966.743 -849.533 C -970.787 -850.885 -974.871 -851.818 -978.883 -852.316 L -978.494 -856.958 C -974.271 -856.445 -969.974 -855.457 -965.724 -854.034 L -966.743 -849.533" style="fill: rgb(254, 181, 70); fill-opacity: 1; fill-rule: nonzero; stroke: none;" id="path128"/>
  <path d="M -1143.138 -188.932 C -1143.138 -188.932 -1144.553 -171.983 -1155.562 -170.81 C -1144.553 -169.636 -1143.138 -152.68 -1143.138 -152.68 C -1143.138 -152.68 -1141.723 -169.636 -1130.713 -170.81 C -1141.723 -171.983 -1143.138 -188.932 -1143.138 -188.932" style="fill: rgb(255, 91, 126); fill-opacity: 1; fill-rule: nonzero; stroke: none;" id="path130"/>
  <path d="M -728.676 -430.603 C -728.676 -430.603 -730.928 -403.602 -748.459 -401.736 C -730.928 -399.87 -728.676 -372.877 -728.676 -372.877 C -728.676 -372.877 -726.424 -399.87 -708.894 -401.736 C -726.424 -403.602 -728.676 -430.603 -728.676 -430.603" style="fill: rgb(2, 204, 192); fill-opacity: 1; fill-rule: nonzero; stroke: none;" id="path132"/>
  <path d="M -1334.737 -756.674 C -1334.737 -756.674 -1336.99 -729.681 -1354.521 -727.807 C -1336.99 -725.941 -1334.737 -698.948 -1334.737 -698.948 C -1334.737 -698.948 -1332.484 -725.941 -1314.953 -727.807 C -1332.484 -729.681 -1334.737 -756.674 -1334.737 -756.674" style="fill: rgb(2, 204, 192); fill-opacity: 1; fill-rule: nonzero; stroke: none;" id="path134"/>
  <path d="M -910.883 -530.863 C -910.883 -530.863 -912.601 -506.948 -925.97 -505.292 C -912.601 -503.637 -910.883 -479.722 -910.883 -479.722 C -910.883 -479.722 -909.165 -503.637 -895.796 -505.292 C -909.165 -506.948 -910.883 -530.863 -910.883 -530.863" style="fill: rgb(254, 181, 70); fill-opacity: 1; fill-rule: nonzero; stroke: none;" id="path136"/>
  <path d="M -1257.749 -880.53 C -1257.749 -880.53 -1259.467 -856.608 -1272.836 -854.96 C -1259.467 -853.304 -1257.749 -829.381 -1257.749 -829.381 C -1257.749 -829.381 -1256.031 -853.304 -1242.661 -854.96 C -1256.031 -856.608 -1257.749 -880.53 -1257.749 -880.53" style="fill: rgb(254, 181, 70); fill-opacity: 1; fill-rule: nonzero; stroke: none;" id="path138"/>
  <path d="M -165.205 -814.493 C -165.205 -737.518 -222.191 -675.112 -292.48 -675.112 C -362.775 -675.112 -419.762 -737.518 -419.762 -814.493 C -419.762 -891.476 -362.775 -953.875 -292.48 -953.875 C -222.191 -953.875 -165.205 -891.476 -165.205 -814.493" style="fill: rgb(230, 247, 255); fill-opacity: 1; fill-rule: nonzero; stroke: none;" id="path140"/>
  <path d="M -370.772 -654.268 C -370.772 -644.208 -378.219 -636.052 -387.401 -636.052 C -396.588 -636.052 -404.035 -644.208 -404.035 -654.268 C -404.035 -664.328 -396.588 -672.476 -387.401 -672.476 C -378.219 -672.476 -370.772 -664.328 -370.772 -654.268" style="fill: rgb(230, 247, 255); fill-opacity: 1; fill-rule: nonzero; stroke: none;" id="path142"/>
  <path d="M -234.866 -837.568 C -237.56 -855.698 -247.841 -870.431 -263.484 -871.807 C -283.113 -873.525 -290.829 -851.99 -292.237 -850.007 C -293.139 -851.305 -297.202 -864.079 -308.251 -870.011 C -326.331 -879.722 -348.245 -864.67 -350.721 -832.616 C -352.001 -816.002 -347.989 -803.383 -340.222 -790.143 C -329.07 -771.134 -309.639 -750.625 -294.182 -736.755 C -293.606 -736.242 -293.216 -736.242 -292.659 -736.755 C -284.355 -744.375 -256.165 -767.939 -241.718 -795.337 C -234.872 -808.328 -232.614 -822.416 -234.866 -837.568" style="fill: rgb(255, 91, 126); fill-opacity: 1; fill-rule: nonzero; stroke: none;" id="path144"/>
</svg>