<svg width="35" height="34" viewBox="0 0 35 34" fill="none" xmlns="http://www.w3.org/2000/svg">
<path fill-rule="evenodd" clip-rule="evenodd" d="M0.673797 0.142454C0.505501 0.225801 0.312773 0.395883 0.209073 0.552549L0.0319465 0.820256L0.011897 4.71028C-0.00144725 7.29391 0.0152828 8.68092 0.0616225 8.84038C0.156227 9.1656 0.358581 9.40807 0.666295 9.56513C0.91313 9.69112 1.0724 9.6961 4.84463 9.6961C8.027 9.6961 8.80667 9.67883 8.98002 9.60465C9.2384 9.49407 9.52487 9.19907 9.62094 8.94465C9.66794 8.82026 9.69158 7.44685 9.69158 4.84104C9.69158 1.12881 9.685 0.911573 9.56584 0.678001C9.41055 0.373635 9.25978 0.233904 8.94443 0.102076C8.73398 0.014146 8.16263 -6.61812e-05 4.83069 2.30928e-07C1.0084 6.6643e-05 0.957877 0.00179334 0.673797 0.142454ZM12.8451 0.124855C12.5292 0.269965 12.3876 0.418064 12.2501 0.747335C12.1621 0.957995 12.148 1.53292 12.148 4.8967C12.148 9.27803 12.1223 9.04088 12.6424 9.462L12.8906 9.66289H16.9944H21.0982L21.3463 9.462C21.8665 9.04088 21.8408 9.27803 21.8408 4.8967C21.8408 1.53292 21.8267 0.957995 21.7387 0.747335C21.6011 0.418064 21.4596 0.269965 21.1437 0.124855C20.8956 0.0108918 20.6225 0.00285595 16.9944 0.00285595C13.3663 0.00285595 13.0932 0.0108918 12.8451 0.124855ZM25.0295 0.105064C24.726 0.236759 24.5755 0.378948 24.4229 0.678001C24.3038 0.911573 24.2972 1.12881 24.2972 4.84104C24.2972 7.44685 24.3208 8.82026 24.3678 8.94465C24.4639 9.19907 24.7504 9.49407 25.0088 9.60465C25.1821 9.67883 25.9618 9.6961 29.1441 9.6961C32.9164 9.6961 33.0757 9.69112 33.3225 9.56513C33.6302 9.40807 33.8326 9.1656 33.9272 8.84038C33.9735 8.68092 33.9902 7.29391 33.9769 4.71028L33.9568 0.820256L33.7786 0.550955C33.6714 0.388777 33.4847 0.225669 33.3095 0.140794C33.0231 0.00205901 32.9595 2.31201e-07 29.1392 0.00252389C25.8353 0.00471549 25.2257 0.0199903 25.0295 0.105064ZM7.30157 4.88122V7.30526H4.87836H2.45515V4.88122V2.45718H4.87836H7.30157V4.88122ZM19.435 4.86462L19.4176 7.27206H16.9944H14.5712L14.5538 4.86462L14.5363 2.45718H16.9944H19.4524L19.435 4.86462ZM31.5336 4.88122V7.30526H29.1104H26.6872V4.88122V2.45718H29.1104H31.5336V4.88122ZM0.695839 12.2783C0.379959 12.4234 0.238417 12.5715 0.100859 12.9007C0.0128928 13.1115 -0.00104891 13.6806 0.000212483 17.0159C0.00154027 20.6294 0.00977252 20.9042 0.12363 21.1522C0.26869 21.4682 0.416738 21.6098 0.745896 21.7474C0.956483 21.8354 1.53121 21.8495 4.89383 21.8495C9.27366 21.8495 9.03658 21.8752 9.45755 21.3549L9.65838 21.1066V17.0014V12.8962L9.45755 12.648C9.03631 12.1274 9.27578 12.1531 4.87942 12.1548C1.21985 12.1561 0.943869 12.1643 0.695839 12.2783ZM12.8451 12.2783C12.5292 12.4234 12.3876 12.5715 12.2501 12.9007C12.1621 13.1115 12.1482 13.6806 12.1494 17.0159C12.1508 20.6294 12.159 20.9042 12.2729 21.1522C12.4179 21.4682 12.566 21.6098 12.8951 21.7474C13.1058 21.8354 13.6747 21.8493 17.0089 21.848C20.6211 21.8467 20.8958 21.8385 21.1437 21.7246C21.4596 21.5795 21.6011 21.4314 21.7387 21.1021C21.8921 20.7348 21.8921 13.2681 21.7387 12.9007C21.6011 12.5715 21.4596 12.4234 21.1437 12.2783C20.8956 12.1643 20.6225 12.1563 16.9944 12.1563C13.3663 12.1563 13.0932 12.1643 12.8451 12.2783ZM24.9617 12.2765C24.8354 12.3443 24.6417 12.5114 24.5312 12.648L24.3304 12.8962V17.0014V21.1066L24.5312 21.3549C24.9525 21.8755 24.713 21.8497 29.1094 21.848C32.7689 21.8467 33.0449 21.8386 33.2929 21.7246C33.6088 21.5795 33.7504 21.4314 33.8879 21.1021C34.0413 20.7348 34.0413 13.2681 33.8879 12.9007C33.7504 12.5715 33.6088 12.4234 33.2929 12.2783C33.0449 12.1643 32.7689 12.1561 29.1094 12.1548C25.4184 12.1534 25.1781 12.1605 24.9617 12.2765ZM7.26837 17.0014V19.4255L4.86176 19.4429L2.45515 19.4603V17.0014V14.5425L4.86176 14.56L7.26837 14.5774V17.0014ZM19.4176 17.0014V19.4255H16.9944H14.5712L14.5537 17.0682C14.5441 15.7717 14.5508 14.673 14.5685 14.6267C14.594 14.5605 15.113 14.5462 17.0092 14.5599L19.4176 14.5774V17.0014ZM31.5336 17.0022V19.4603L29.127 19.4429L26.7204 19.4255L26.7029 17.0682C26.6933 15.7717 26.6999 14.6734 26.7175 14.6275C26.7423 14.5628 27.2838 14.5442 29.1416 14.5442H31.5336V17.0022ZM0.695839 24.4173C0.388257 24.5799 0.256143 24.7154 0.12363 25.0041C0.00977252 25.2521 0.00154027 25.5271 0.000212483 29.1505C-0.00124808 32.9709 0.000942752 33.0358 0.139563 33.3222C0.224409 33.4975 0.387461 33.6841 0.549583 33.7915L0.818791 33.9697L4.70747 33.9898C7.29021 34.0031 8.67675 33.9864 8.83615 33.94C9.16126 33.8454 9.40365 33.643 9.56066 33.3352C9.6866 33.0882 9.69158 32.9289 9.69158 29.1554C9.69158 25.9719 9.67432 25.192 9.60016 25.0186C9.48962 24.7601 9.19472 24.4735 8.94038 24.3774C8.8157 24.3303 7.44536 24.3076 4.82425 24.3094C1.36922 24.3117 0.870973 24.3248 0.695839 24.4173ZM12.8125 24.43C12.6862 24.4978 12.4925 24.6649 12.382 24.8013L12.1812 25.0495L12.1611 28.9783C12.1478 31.5888 12.1645 32.9877 12.2108 33.1472C12.3088 33.484 12.5237 33.7334 12.8398 33.877C13.0936 33.9922 13.3555 34 16.9944 34C20.6333 34 20.8952 33.9922 21.149 33.877C21.465 33.7334 21.6799 33.484 21.7779 33.1472C21.8243 32.9877 21.841 31.5888 21.8277 28.9783L21.8076 25.0495L21.6068 24.8013C21.1854 24.2807 21.4289 24.3068 16.9944 24.3068C13.2717 24.3068 13.0288 24.3139 12.8125 24.43ZM24.9943 24.4009C24.7469 24.5114 24.4611 24.8112 24.3678 25.0582C24.3208 25.1826 24.2972 26.556 24.2972 29.1618C24.2972 32.9289 24.3022 33.0882 24.4281 33.3352C24.5851 33.643 24.8275 33.8454 25.1526 33.94C25.312 33.9864 26.6986 34.0031 29.2813 33.9898L33.17 33.9697L33.4392 33.7915C33.6013 33.6841 33.7644 33.4975 33.8492 33.3222C33.9878 33.0359 33.99 32.9691 33.99 29.1649C33.99 25.8359 33.9758 25.2647 33.8879 25.0542C33.7561 24.7387 33.6165 24.5879 33.3122 24.4325C33.0785 24.3132 32.864 24.3069 29.1297 24.3093C25.9889 24.3114 25.1532 24.3299 24.9943 24.4009ZM7.30157 29.1216V31.5457H4.87836H2.45515V29.1216V26.6976H4.87836H7.30157V29.1216ZM19.435 29.1382L19.4524 31.5457H16.9952H14.538V29.1659C14.538 27.857 14.5583 26.7659 14.5831 26.741C14.6078 26.7163 15.7058 26.7038 17.0229 26.7134L19.4176 26.7308L19.435 29.1382ZM31.5336 29.1216V31.5457H29.1104H26.6872V29.1216V26.6976H29.1104H31.5336V29.1216Z" fill="#163EE1"/>
<path fill-rule="evenodd" clip-rule="evenodd" d="M12.8449 0.124929C12.529 0.270039 12.3875 0.418138 12.2499 0.747409C12.162 0.958068 12.1478 1.533 12.1478 4.89677C12.1478 9.27811 12.1221 9.04095 12.6423 9.46207L12.8905 9.66297H16.9943H21.098L21.3462 9.46207C21.8664 9.04095 21.8407 9.27811 21.8407 4.89677C21.8407 1.533 21.8265 0.958068 21.7386 0.747409C21.601 0.418138 21.4595 0.270039 21.1436 0.124929C20.8955 0.0109656 20.6224 0.00292969 16.9943 0.00292969C13.3661 0.00292969 13.093 0.0109656 12.8449 0.124929ZM19.4349 4.86469L19.4175 7.27213H16.9943H14.571L14.5537 4.86469L14.5362 2.45725H16.9943H19.4523L19.4349 4.86469ZM0.695701 12.2783C0.379821 12.4235 0.238279 12.5716 0.100721 12.9008C0.0127551 13.1115 -0.00118666 13.6807 7.47304e-05 17.016C0.00140251 20.6295 0.00963478 20.9043 0.123492 21.1523C0.268553 21.4682 0.416601 21.6098 0.745758 21.7474C0.956345 21.8354 1.53108 21.8496 4.89369 21.8496C9.27352 21.8496 9.03644 21.8753 9.45742 21.3549L9.65825 21.1067V17.0015V12.8963L9.45742 12.6481C9.03618 12.1275 9.27564 12.1532 4.87928 12.1549C1.21971 12.1562 0.943731 12.1644 0.695701 12.2783ZM24.9616 12.2766C24.8353 12.3444 24.6416 12.5115 24.5311 12.6481L24.3303 12.8963V17.0015V21.1067L24.5311 21.3549C24.9523 21.8756 24.7129 21.8498 29.1092 21.8481C32.7688 21.8468 33.0448 21.8386 33.2928 21.7247C33.6087 21.5795 33.7502 21.4315 33.8878 21.1022C34.0412 20.7349 34.0412 13.2681 33.8878 12.9008C33.7502 12.5716 33.6087 12.4235 33.2928 12.2783C33.0448 12.1644 32.7688 12.1562 29.1092 12.1549C25.4183 12.1535 25.1779 12.1606 24.9616 12.2766ZM7.26823 17.0015V19.4255L4.86162 19.4429L2.45502 19.4604V17.0015V14.5426L4.86162 14.5601L7.26823 14.5775V17.0015ZM31.5335 17.0023V19.4604L29.1269 19.4429L26.7203 19.4255L26.7028 17.0682C26.6932 15.7718 26.6998 14.6735 26.7174 14.6276C26.7422 14.5629 27.2837 14.5443 29.1414 14.5443H31.5335V17.0023ZM12.8123 24.43C12.6861 24.4978 12.4923 24.6649 12.3819 24.8014L12.181 25.0496L12.161 28.9784C12.1476 31.5889 12.1644 32.9878 12.2107 33.1473C12.3087 33.4841 12.5236 33.7334 12.8397 33.8771C13.0934 33.9923 13.3553 34.0001 16.9943 34.0001C20.6332 34.0001 20.8951 33.9923 21.1488 33.8771C21.4649 33.7334 21.6798 33.4841 21.7778 33.1473C21.8241 32.9878 21.8409 31.5889 21.8275 28.9784L21.8075 25.0496L21.6066 24.8014C21.1853 24.2807 21.4287 24.3068 16.9943 24.3068C13.2716 24.3068 13.0287 24.314 12.8123 24.43ZM19.4349 29.1383L19.4523 31.5457H16.9951H14.5379V29.166C14.5379 27.8571 14.5582 26.7659 14.5829 26.7411C14.6077 26.7163 15.7056 26.7038 17.0227 26.7135L19.4175 26.7309L19.4349 29.1383Z" fill="black"/>
</svg>
