<svg width="729" height="180" viewBox="0 0 729 180" fill="none" xmlns="http://www.w3.org/2000/svg">
<path d="M203.75 66.6708C203.75 66.4608 203.75 66.2608 203.75 66.0208C203.73 65.8573 203.651 65.7068 203.528 65.598C203.404 65.4891 203.245 65.4296 203.08 65.4308H198.82C198.731 65.4308 198.643 65.4132 198.561 65.3789C198.479 65.3446 198.405 65.2943 198.343 65.2311C198.28 65.1678 198.231 65.0927 198.198 65.0103C198.165 64.9278 198.149 64.8396 198.15 64.7508C198.29 59.842 197.535 54.9487 195.92 50.3108C192.807 41.9508 186.843 37.0575 178.03 35.6308C177.03 35.4708 176.39 35.2808 176.03 34.1608C175.698 33.3859 175.097 32.757 174.338 32.3896C173.58 32.0221 172.714 31.9409 171.9 32.1608C171.117 32.3395 170.414 32.7687 169.897 33.3832C169.38 33.9977 169.078 34.7641 169.036 35.566C168.994 36.3679 169.215 37.1616 169.665 37.8266C170.115 38.4916 170.77 38.9916 171.53 39.2508C172.328 39.5257 173.196 39.5188 173.989 39.2313C174.783 38.9438 175.453 38.393 175.89 37.6708C176.05 37.4108 176.19 37.1408 176.32 36.8808C176.379 36.7728 176.465 36.6824 176.571 36.6191C176.676 36.5558 176.797 36.5219 176.92 36.5208H177.09L177.87 36.6308C186.76 38.0808 192.52 43.1808 195.34 51.6308C196.708 55.8916 197.321 60.3589 197.15 64.8308C197.145 65.005 197.072 65.1703 196.947 65.2917C196.822 65.4131 196.654 65.4809 196.48 65.4808H192.14C191.962 65.4808 191.792 65.5514 191.666 65.6771C191.541 65.8027 191.47 65.9731 191.47 66.1508V67.3608C191.47 76.5908 191.47 85.8308 191.47 95.0608C191.486 97.5092 191.295 99.9545 190.9 102.371C188.74 114.151 182.38 122.661 170.75 126.251C159.12 129.841 148.08 127.911 139.04 119.071C132.97 113.151 130.53 105.541 130.37 97.2408C130.19 87.2408 130.3 77.3208 130.28 67.3608V66.0908C130.28 66.0028 130.263 65.9157 130.229 65.8344C130.195 65.7531 130.146 65.6793 130.084 65.6171C130.021 65.5548 129.948 65.5055 129.866 65.4718C129.785 65.4381 129.698 65.4208 129.61 65.4208H125.45C125.272 65.4208 125.102 65.3502 124.976 65.2246C124.851 65.0989 124.78 64.9285 124.78 64.7508C124.78 56.7508 125.97 49.2708 131.41 43.0708C135 38.9708 139.7 37.0708 144.99 36.4208C145.123 36.4026 145.258 36.4254 145.378 36.4862C145.498 36.5469 145.596 36.6427 145.66 36.7608C145.66 36.8508 145.74 36.9208 145.78 37.0008C146.78 38.9308 148.35 39.7408 150.24 39.2408C151.026 39.0194 151.716 38.5435 152.203 37.8877C152.689 37.2319 152.945 36.4332 152.929 35.6167C152.913 34.8003 152.626 34.0122 152.114 33.376C151.603 32.7397 150.894 32.2913 150.1 32.1008C148.21 31.6808 146.66 32.5908 145.7 34.5008C145.556 34.7431 145.361 34.9522 145.131 35.1142C144.9 35.2762 144.637 35.3875 144.36 35.4408C134.28 36.9508 127.94 42.7708 125.36 52.4408C124.36 56.3608 124.01 60.4408 123.36 64.8908C123.334 65.0481 123.254 65.1914 123.133 65.2955C123.013 65.3997 122.859 65.4582 122.7 65.4608H118.7C118.611 65.4595 118.523 65.4758 118.441 65.5089C118.358 65.542 118.283 65.5911 118.22 65.6535C118.156 65.7158 118.106 65.7901 118.072 65.8721C118.038 65.954 118.02 66.042 118.02 66.1308V66.5908C118.02 76.3408 117.95 86.0908 118.07 95.8408C118.066 99.2324 118.401 102.616 119.07 105.941C122.95 123.671 133.15 135.591 151.16 140.131C151.84 140.301 152.53 140.441 153.26 140.591C153.411 140.623 153.546 140.706 153.642 140.827C153.739 140.947 153.791 141.097 153.79 141.251C153.79 142.181 153.79 143.051 153.79 143.921C153.79 146.861 153.55 147.681 154.61 147.921C155.478 147.995 156.352 147.995 157.22 147.921H166.13C166.202 147.936 166.277 147.936 166.35 147.921C167.02 147.681 167.24 147.031 167.19 146.001C167.11 144.471 167.19 142.931 167.19 141.451C167.189 141.341 167.216 141.233 167.268 141.137C167.321 141.04 167.397 140.959 167.49 140.901H167.57C167.93 140.821 168.29 140.761 168.65 140.701C175.072 139.697 181.15 137.132 186.35 133.231C198.04 124.311 203.35 112.111 203.75 97.7108C203.96 87.3308 203.75 76.9908 203.75 66.6708ZM199.95 96.8308C199.67 110.251 195.04 121.731 184.13 130.071C165.74 144.151 131.13 139.641 123.13 107.071C122.289 103.42 121.85 99.6875 121.82 95.9408C121.63 87.6508 121.76 79.3608 121.76 71.0708V69.9808C121.76 69.8031 121.831 69.6327 121.956 69.5071C122.082 69.3814 122.252 69.3108 122.43 69.3108H125.82C125.998 69.3108 126.168 69.3814 126.294 69.5071C126.419 69.6327 126.49 69.8031 126.49 69.9808V71.2408C126.49 79.4808 126.49 87.7208 126.49 95.9608C126.49 104.961 128.74 113.421 134.89 120.251C144.69 131.101 157.06 133.841 170.83 130.181C184.6 126.521 193.97 114.791 194.83 100.091C195.38 90.7908 195.06 81.4308 195.13 72.0908C195.13 71.4108 195.13 70.7308 195.13 70.0008C195.13 69.8231 195.201 69.6527 195.326 69.5271C195.452 69.4014 195.622 69.3308 195.8 69.3308H199.24C199.418 69.3308 199.588 69.4014 199.714 69.5271C199.839 69.6527 199.91 69.8231 199.91 70.0008V71.0008C199.98 79.6008 200.12 88.2008 199.95 96.8308Z" fill="#ffffff"/>
<path d="M6.48 90C6.48 81.68 8.2 74.28 11.64 67.8C15.16 61.24 19.96 56.12 26.04 52.44C32.2 48.76 39.08 46.92 46.68 46.92C56.28 46.92 64.36 49.16 70.92 53.64C77.48 58.12 82.28 64.4 85.32 72.48H79.08C76.68 66.08 72.68 61.04 67.08 57.36C61.56 53.6 54.76 51.72 46.68 51.72C40.2 51.72 34.32 53.28 29.04 56.4C23.76 59.44 19.6 63.88 16.56 69.72C13.52 75.48 12 82.24 12 90C12 97.68 13.52 104.4 16.56 110.16C19.6 115.84 23.76 120.24 29.04 123.36C34.32 126.48 40.2 128.04 46.68 128.04C54.76 128.04 61.56 126.2 67.08 122.52C72.68 118.76 76.68 113.68 79.08 107.28H85.32C82.28 115.36 77.48 121.64 70.92 126.12C64.36 130.6 56.28 132.84 46.68 132.84C39.08 132.84 32.2 131.04 26.04 127.44C19.96 123.76 15.16 118.68 11.64 112.2C8.2 105.64 6.48 98.24 6.48 90ZM287.398 132L265.798 96.12H265.318H247.318V132H241.918V47.76H265.078C274.438 47.76 281.438 49.96 286.078 54.36C290.798 58.76 293.158 64.6 293.158 71.88C293.158 78.36 291.318 83.72 287.638 87.96C284.038 92.12 278.758 94.68 271.798 95.64L293.878 132H287.398ZM247.318 91.56H265.318C272.758 91.56 278.318 89.76 281.998 86.16C285.678 82.56 287.518 77.8 287.518 71.88C287.518 59 280.038 52.56 265.078 52.56H247.318V91.56ZM369.544 88.44C374.424 89.32 378.504 91.72 381.784 95.64C385.144 99.56 386.824 104.16 386.824 109.44C386.824 113.76 385.784 117.64 383.704 121.08C381.704 124.44 378.664 127.12 374.584 129.12C370.584 131.04 365.704 132 359.944 132H333.184V47.76H359.464C367.864 47.76 374.184 49.72 378.424 53.64C382.744 57.48 384.904 62.48 384.904 68.64C384.904 74 383.464 78.36 380.584 81.72C377.704 85 374.024 87.24 369.544 88.44ZM338.584 86.04H359.704C366.024 86.04 370.864 84.56 374.224 81.6C377.664 78.56 379.384 74.4 379.384 69.12C379.384 64 377.704 59.96 374.344 57C370.984 54.04 365.904 52.56 359.104 52.56H338.584V86.04ZM359.584 127.32C366.384 127.32 371.704 125.72 375.544 122.52C379.464 119.24 381.424 114.76 381.424 109.08C381.424 103.48 379.424 99.04 375.424 95.76C371.504 92.4 366.104 90.72 359.224 90.72H338.584V127.32H359.584ZM451.036 132.84C445.596 132.84 440.836 131.88 436.756 129.96C432.676 128.04 429.476 125.44 427.156 122.16C424.916 118.88 423.636 115.24 423.316 111.24H428.956C429.596 115.64 431.636 119.56 435.076 123C438.596 126.44 443.916 128.16 451.036 128.16C455.196 128.16 458.796 127.4 461.836 125.88C464.956 124.36 467.356 122.28 469.036 119.64C470.716 117 471.556 114.08 471.556 110.88C471.556 106.8 470.556 103.56 468.556 101.16C466.636 98.76 464.196 96.96 461.236 95.76C458.356 94.56 454.436 93.28 449.476 91.92C444.036 90.48 439.636 89.04 436.276 87.6C432.996 86.16 430.196 83.96 427.876 81C425.636 77.96 424.516 73.84 424.516 68.64C424.516 64.64 425.556 61 427.636 57.72C429.796 54.36 432.836 51.72 436.756 49.8C440.676 47.88 445.196 46.92 450.316 46.92C457.756 46.92 463.756 48.76 468.316 52.44C472.876 56.12 475.596 60.64 476.476 66H470.716C470.236 63.84 469.156 61.64 467.476 59.4C465.876 57.16 463.556 55.32 460.516 53.88C457.556 52.36 453.996 51.6 449.836 51.6C444.236 51.6 439.516 53.16 435.676 56.28C431.836 59.32 429.916 63.4 429.916 68.52C429.916 72.6 430.916 75.88 432.916 78.36C434.916 80.76 437.356 82.6 440.236 83.88C443.196 85.08 447.156 86.32 452.116 87.6C457.636 89.12 461.996 90.6 465.196 92.04C468.476 93.4 471.236 95.6 473.476 98.64C475.796 101.6 476.956 105.64 476.956 110.76C476.956 114.52 475.956 118.08 473.956 121.44C471.956 124.8 468.996 127.56 465.076 129.72C461.236 131.8 456.556 132.84 451.036 132.84ZM525.041 47.76L524.441 111.48H519.761L519.041 47.76H525.041ZM522.401 132.36C521.041 132.36 519.921 131.92 519.041 131.04C518.161 130.16 517.721 129.04 517.721 127.68C517.721 126.32 518.161 125.2 519.041 124.32C519.921 123.44 521.041 123 522.401 123C523.681 123 524.761 123.44 525.641 124.32C526.521 125.2 526.961 126.32 526.961 127.68C526.961 129.04 526.521 130.16 525.641 131.04C524.761 131.92 523.681 132.36 522.401 132.36ZM594.878 47.76C609.118 47.76 620.078 51.48 627.758 58.92C635.518 66.36 639.398 76.72 639.398 90C639.398 103.28 635.518 113.6 627.758 120.96C620.078 128.32 609.118 132 594.878 132H571.238V47.76H594.878ZM594.878 127.44C607.598 127.44 617.278 124.16 623.918 117.6C630.558 110.96 633.878 101.76 633.878 90C633.878 78.16 630.558 68.92 623.918 62.28C617.278 55.64 607.598 52.32 594.878 52.32H576.638V127.44H594.878ZM685.131 52.32V87.48H718.731V92.04H685.131V127.44H722.331V132H679.731V47.76H722.331V52.32H685.131Z" fill="#ffffff"/>
<path d="M160.5 145C214.167 174 361.9 211.6 523.5 130" stroke="#ffffff"/>
</svg>
