<?xml version="1.0" standalone="no"?>
<!DOCTYPE svg PUBLIC "-//W3C//DTD SVG 20010904//EN"
 "http://www.w3.org/TR/2001/REC-SVG-20010904/DTD/svg10.dtd">
<svg version="1.0" xmlns="http://www.w3.org/2000/svg"
 width="736.000000pt" height="736.000000pt" viewBox="0 0 736.000000 736.000000"
 preserveAspectRatio="xMidYMid meet">
<metadata>
Created by potrace 1.14, written by Peter Selinger 2001-2017
</metadata>
<g transform="translate(0.000000,736.000000) scale(0.100000,-0.100000)"
fill="#000000" stroke="none">
<path d="M3578 7235 c-2 -2 -39 -6 -84 -9 -44 -4 -91 -9 -104 -11 -13 -3 -42
-7 -65 -10 -104 -16 -390 -88 -450 -115 -11 -5 -58 -24 -105 -42 -145 -55
-441 -210 -514 -269 -45 -36 -108 -79 -115 -79 -5 0 -11 -3 -13 -7 -1 -5 -43
-41 -93 -82 -147 -122 -312 -295 -416 -436 -24 -33 -47 -61 -51 -63 -5 -2 -8
-10 -8 -18 0 -8 -4 -14 -10 -14 -5 0 -10 -4 -10 -9 0 -5 -17 -35 -39 -67 -143
-217 -275 -547 -317 -791 -16 -93 -26 -162 -29 -200 -5 -52 -5 -291 -1 -328 2
-16 7 -59 11 -95 16 -151 73 -371 140 -540 45 -112 139 -294 186 -362 11 -14
19 -29 19 -33 0 -3 7 -13 15 -21 24 -24 18 -48 -30 -115 -45 -65 -126 -193
-163 -261 -38 -67 -62 -164 -57 -228 5 -72 25 -114 79 -162 63 -57 134 -70
286 -54 65 6 77 8 180 26 95 17 113 21 185 35 39 8 86 17 105 20 19 3 42 8 50
10 8 2 32 6 52 9 21 2 41 7 46 10 9 6 79 -29 136 -68 52 -35 247 -129 356
-171 52 -20 104 -41 115 -45 23 -10 191 -59 224 -65 13 -2 32 -7 44 -11 12 -4
31 -8 42 -10 11 -2 58 -10 105 -19 236 -45 551 -52 830 -19 136 15 194 89 163
209 -17 64 -24 97 -25 113 -1 7 -16 30 -35 51 -44 52 -88 63 -195 47 -145 -21
-451 -22 -553 -2 -11 2 -45 7 -75 12 -30 4 -57 8 -60 9 -3 1 -32 7 -65 14
-100 20 -289 79 -370 115 -140 62 -192 88 -275 135 -52 30 -97 58 -100 61 -3
3 -16 11 -29 18 -13 8 -40 23 -60 34 -47 27 -191 29 -311 4 -47 -9 -92 -18
-100 -20 -123 -23 -140 -26 -140 -19 0 3 15 29 33 57 75 114 107 206 103 299
-2 69 -7 80 -120 249 -61 90 -165 282 -170 312 -1 6 -4 16 -7 21 -6 9 -29 74
-36 100 -1 6 -12 44 -24 85 -11 41 -22 88 -25 104 -2 15 -6 35 -8 45 -23 72
-24 467 -2 533 3 7 8 30 11 51 13 90 91 348 108 355 4 2 7 10 7 18 0 8 12 38
27 67 15 29 26 55 25 60 -1 4 2 7 8 7 5 0 10 5 10 10 0 17 106 182 167 261
115 150 244 278 393 391 41 32 80 62 87 68 7 5 16 10 22 10 5 0 11 4 13 8 9
23 283 171 418 226 36 15 74 31 85 36 25 11 145 51 165 55 8 2 35 8 60 15 25
7 54 14 65 16 50 10 68 14 85 19 10 3 34 8 52 9 18 2 60 8 93 12 69 10 386 10
460 0 82 -10 129 -17 136 -21 3 -2 19 -7 35 -9 66 -12 83 -17 179 -48 55 -18
160 -63 234 -100 84 -43 148 -69 171 -70 57 -2 102 26 141 88 19 31 45 72 58
92 45 70 29 151 -38 195 -34 22 -258 138 -264 136 -1 -1 -18 5 -37 13 -59 25
-183 67 -210 72 -14 3 -26 5 -27 7 -2 1 -7 3 -13 4 -5 1 -12 4 -15 5 -6 3 -9
4 -75 18 -104 23 -97 22 -195 36 -22 3 -60 8 -85 12 -44 6 -397 14 -402 9z"/>
<path d="M4178 4839 c-16 -4 -28 -5 -28 -2 0 2 -13 -5 -30 -17 -36 -25 -67
-68 -74 -101 -3 -13 -13 -52 -22 -87 -14 -51 -15 -70 -5 -100 17 -54 61 -97
110 -107 73 -14 231 -66 306 -100 28 -13 60 -26 73 -30 12 -3 22 -11 22 -16 0
-5 6 -9 14 -9 33 0 272 -154 386 -248 88 -74 251 -242 315 -328 33 -43 63 -80
68 -82 4 -2 7 -8 7 -12 0 -8 35 -66 57 -95 16 -21 66 -114 109 -205 124 -260
198 -578 196 -845 0 -67 -10 -219 -16 -250 -6 -33 -20 -109 -21 -120 -1 -5 -4
-21 -8 -35 -4 -14 -9 -34 -11 -45 -1 -11 -5 -27 -8 -35 -3 -8 -17 -53 -32 -99
-24 -74 -41 -117 -79 -201 -37 -80 -164 -292 -179 -298 -5 -2 -8 -10 -8 -18 0
-8 -4 -14 -9 -14 -5 0 -17 -13 -28 -29 -20 -32 -84 -108 -140 -167 -69 -74
-102 -209 -82 -334 4 -25 10 -63 14 -85 3 -22 8 -47 10 -55 5 -17 15 -73 20
-110 2 -14 6 -37 10 -53 5 -18 3 -27 -5 -27 -10 0 -147 53 -245 94 -16 7 -43
19 -60 26 -152 65 -288 83 -378 51 -32 -11 -57 -17 -57 -14 0 3 -6 1 -12 -5
-16 -12 -191 -53 -288 -68 -183 -28 -511 -24 -674 7 -28 5 -64 12 -81 14 -16
3 -43 8 -60 12 -16 4 -32 7 -35 8 -3 0 -43 11 -90 24 -83 22 -117 34 -152 52
-10 5 -24 9 -31 9 -20 0 -178 70 -292 130 -105 54 -301 181 -347 225 -15 14
-29 25 -32 25 -16 0 -216 203 -288 292 -74 91 -106 112 -169 111 -63 -1 -206
-89 -234 -143 -39 -76 -22 -125 89 -257 203 -242 461 -458 701 -588 39 -21 78
-45 88 -53 9 -8 17 -12 17 -8 0 4 12 -1 27 -11 64 -44 355 -156 515 -199 86
-23 109 -28 166 -39 15 -3 41 -8 57 -12 17 -4 32 -7 35 -8 3 -1 32 -5 65 -9
32 -4 68 -10 80 -12 107 -21 506 -20 625 1 14 2 43 7 65 10 122 19 156 26 253
51 51 13 108 30 125 37 26 11 42 11 82 2 60 -15 212 -76 289 -117 10 -5 26
-11 35 -13 9 -2 55 -20 104 -40 121 -49 196 -65 291 -61 219 8 329 168 293
428 -3 20 -8 45 -11 55 -3 10 -7 29 -10 43 -3 14 -10 43 -16 65 -6 22 -11 55
-10 73 0 18 -6 61 -14 95 -25 100 -26 118 -11 133 8 8 31 36 52 62 21 26 40
49 43 52 23 21 160 224 203 300 96 170 213 460 233 580 3 14 8 34 11 45 4 11
8 25 9 30 7 35 15 75 20 105 3 19 7 46 10 60 18 103 25 460 11 562 -4 27 -10
69 -13 95 -3 27 -8 57 -10 68 -2 11 -7 34 -10 50 -3 17 -11 55 -19 85 -8 30
-16 67 -19 82 -2 14 -10 37 -17 50 -7 12 -12 25 -11 28 2 8 -37 132 -52 165
-7 17 -25 59 -39 95 -29 73 -117 246 -154 300 -12 19 -23 40 -23 47 0 7 -3 13
-8 13 -4 0 -16 16 -26 35 -11 19 -23 35 -28 35 -4 0 -8 5 -8 10 0 11 -74 111
-147 197 -46 54 -187 198 -244 248 -99 88 -299 235 -318 235 -5 0 -11 4 -13 8
-1 4 -30 23 -63 41 -33 19 -74 42 -91 52 -84 47 -348 153 -434 175 -8 2 -46
12 -85 22 -44 12 -80 16 -97 11z"/>
</g>
</svg>
