<svg width="50" height="50" viewBox="0 0 50 50" fill="none" xmlns="http://www.w3.org/2000/svg">
<circle cx="25" cy="25" r="25" fill="#D9D9D9"/>
<path d="M21.5891 31.3329L21.589 31.3328C21.5542 31.2959 21.5 31.203 21.5 31.0001C21.5 30.9269 21.5034 30.9197 21.509 30.9079C21.5095 30.9068 21.5101 30.9057 21.5106 30.9045C21.5293 30.8632 21.5841 30.7725 21.7577 30.5731C22.1026 30.1768 22.7848 29.4957 24.153 28.1373C24.153 28.1373 24.153 28.1373 24.153 28.1373L26.9537 25.3564L27.3111 25.0016L26.9537 24.6468L24.153 21.8659C22.7848 20.5074 22.1026 19.8263 21.7577 19.4301C21.5841 19.2307 21.5293 19.14 21.5106 19.0987C21.5101 19.0974 21.5095 19.0963 21.509 19.0952C21.5034 19.0835 21.5 19.0763 21.5 19.003C21.5 18.786 21.5923 18.6446 21.6965 18.5716C21.7923 18.5045 21.9294 18.4725 22.0946 18.5293C22.1044 18.5366 22.1172 18.5466 22.1333 18.5595C22.1876 18.6031 22.2635 18.6677 22.3608 18.7535C22.5543 18.9242 22.8177 19.1659 23.133 19.4622C23.763 20.0541 24.591 20.8547 25.4641 21.7207L28.5 24.7318V25.0016V25.2713L25.4641 28.2824C24.591 29.1484 23.763 29.9491 23.133 30.5409C22.8177 30.8372 22.5543 31.0789 22.3608 31.2496C22.2635 31.3354 22.1876 31.4 22.1333 31.4436C22.1173 31.4564 22.1047 31.4663 22.0949 31.4737C21.9166 31.5338 21.7393 31.4922 21.5891 31.3329ZM22.0714 18.5126C22.0714 18.5126 22.0729 18.5135 22.0761 18.5157C22.0731 18.5139 22.0715 18.5127 22.0714 18.5126ZM22.0714 31.4905C22.0715 31.4904 22.0731 31.4893 22.0761 31.4874C22.0729 31.4897 22.0714 31.4906 22.0714 31.4905Z" fill="#163EE1" stroke="#163EE1"/>
</svg>
