<svg width="20" height="26" viewBox="0 0 20 26" fill="none" xmlns="http://www.w3.org/2000/svg">
<path fill-rule="evenodd" clip-rule="evenodd" d="M0 6.53405C0 2.9254 2.48731 0 5.55556 0H14.4444C17.5127 0 20 2.9254 20 6.53405V24.0364C20 25.6189 18.4879 26.5491 17.3827 25.6465L10.6338 20.1342C10.2527 19.823 9.7473 19.823 9.36623 20.1342L2.61733 25.6465C1.51214 26.5491 0 25.6189 0 24.0364V6.53405ZM5.55556 2.61362C3.71461 2.61362 2.22222 4.36886 2.22222 6.53405V22.7871L8.09868 17.9875C9.24191 17.0537 10.7581 17.0537 11.9013 17.9875L17.7778 22.7871V6.53405C17.7778 4.36886 16.2854 2.61362 14.4444 2.61362H5.55556Z" fill="#2F3339"/>
</svg>
