<svg width="20" height="20" viewBox="0 0 20 20" fill="none" xmlns="http://www.w3.org/2000/svg">
<path fill-rule="evenodd" clip-rule="evenodd" d="M5.7699 3.12659C3.82281 3.12659 2.24439 4.76086 2.24439 6.77682V9.697C2.24439 9.84382 2.25272 9.98833 2.26887 10.1301L2.28608 10.2811L2.2436 10.4267L2.2437 10.427V16.8703L2.70257 17.4246L2.2437 16.8703L5.61936 13.8745C6.00274 13.5342 6.49103 13.3472 6.99598 13.3472H14.2311C16.1782 13.3472 17.7566 11.713 17.7566 9.697V6.77682C17.7566 4.76086 16.1782 3.12659 14.2311 3.12659H5.7699ZM0.834185 6.77682C0.834185 3.95447 3.04398 1.6665 5.7699 1.6665H14.2311C16.957 1.6665 19.1668 3.95447 19.1668 6.77682V9.697C19.1668 12.5193 16.957 14.8073 14.2311 14.8073H6.99598C6.82766 14.8073 6.6649 14.8697 6.5371 14.9831L3.16145 17.9788L2.70699 17.4299L3.16145 17.9788C2.24669 18.7907 0.833496 18.1177 0.833496 16.8703V10.427C0.833496 10.3402 0.840902 10.2546 0.855197 10.1712C0.841282 10.0149 0.834185 9.8567 0.834185 9.697V6.77682Z" fill="#2F3339"/>
</svg>
