<svg width="43" height="34" viewBox="0 0 43 34" fill="none" xmlns="http://www.w3.org/2000/svg">
<path fill-rule="evenodd" clip-rule="evenodd" d="M14.6449 0.0688355C13.8972 0.214197 13.0786 0.557242 12.4773 0.977155C12.0086 1.30441 11.2818 2.08036 10.9871 2.56795C10.4466 3.46251 10.2187 4.29145 10.2191 5.36083C10.2192 5.93159 10.2397 6.11565 10.3529 6.56386C10.506 7.16981 10.8573 7.93065 11.2057 8.41063C12.758 10.5492 15.7025 11.284 18.0686 10.1231C18.703 9.81174 19.0587 9.56193 19.5333 9.09436C20.4464 8.19461 20.982 7.08125 21.1008 5.83575C21.2601 4.16645 20.6882 2.65695 19.451 1.48072C18.6793 0.747127 17.7273 0.263438 16.6678 0.0667658C16.1836 -0.0231468 15.1121 -0.0220397 14.6449 0.0688355ZM1.58007 3.23715C1.1705 3.37664 0.922553 3.53249 0.642096 3.82678C0.35795 4.12496 0.183783 4.41819 0.0794109 4.77404C-0.0165505 5.10144 -0.027027 5.61492 0.0560969 5.91748C0.128941 6.18279 0.668853 7.29549 0.976116 7.81364C2.25883 9.97659 4.48827 12.3636 6.62161 13.8581C7.98036 14.8099 8.95852 16.1601 9.37596 17.6601C9.63959 18.6074 9.64451 18.7239 9.64555 24.0485L9.64653 28.9701H12.9248H16.2031L16.1727 28.5183C16.1525 28.2161 16.1024 27.9623 16.0214 27.7519C15.7963 27.1665 15.5715 26.8982 14.8848 26.3947C13.6404 25.4823 12.283 24.0282 11.5166 22.7867C11.1538 22.1989 10.7787 21.3914 10.6999 21.0281C10.559 20.3792 10.6453 19.7728 10.9628 19.1815C11.807 17.6094 13.9555 17.1756 15.2511 18.3155C15.5033 18.5373 15.9856 19.2081 16.2929 19.7641C16.3841 19.9292 16.4753 20.0646 16.4956 20.0649C16.516 20.0652 16.5325 19.9925 16.5325 19.9032C16.5325 19.6777 16.7427 18.8929 16.8899 18.5688C17.1946 17.8979 17.8688 17.1098 18.485 16.7042C19.4128 16.0935 20.3328 15.8384 21.4148 15.8918C22.0866 15.925 22.4665 16.0164 23.0584 16.2875C24.365 16.8859 25.1786 17.8142 25.6311 19.2231C25.786 19.7056 25.8237 20.7499 25.7065 21.3169C25.532 22.1612 25.1222 22.941 24.5302 23.5553C24.3517 23.7405 24.2056 23.8942 24.2056 23.8969C24.2056 23.8995 24.3549 23.9625 24.5375 24.0368C25.7472 24.5292 27.1553 25.3648 28.052 26.1224C28.7804 26.7378 29.6125 27.6701 30.0448 28.3553L30.2188 28.6309L30.3508 28.539C30.9455 28.1245 31.3962 27.1645 31.3169 26.4809C31.2446 25.8572 30.6652 23.9607 30.2698 23.0538C28.7476 19.5618 26.314 17.0452 22.607 15.1299C20.7711 14.1814 18.6714 13.4408 15.3767 12.5799C12.2467 11.762 11.6501 11.5676 10.704 11.0574C9.4096 10.3592 8.6277 9.74122 6.94122 8.08338C6.09473 7.2512 5.71659 6.78494 5.23649 5.98116C5.02445 5.62618 4.67385 5.0391 4.45743 4.67657C3.98766 3.88959 3.61626 3.47661 3.19149 3.26891C2.91581 3.13409 2.85354 3.12288 2.39606 3.12548C2.01315 3.12764 1.82673 3.15315 1.58007 3.23715ZM29.9445 5.86892C27.6223 6.13302 25.8956 8.2863 26.1743 10.5706C26.394 12.3708 27.6267 13.7641 29.4102 14.228C30.1026 14.4082 30.9237 14.4075 31.6002 14.2265C32.501 13.9854 33.3283 13.4657 33.8968 12.7838C34.034 12.6192 34.256 12.2679 34.3901 12.0032C35.0241 10.7516 35.0241 9.45926 34.3902 8.20068C33.7349 6.89988 32.4889 6.04369 30.9944 5.86728C30.5345 5.81299 30.4346 5.81313 29.9445 5.86892ZM40.6495 8.38719C40.1249 8.55571 39.9038 8.80306 39.1814 10.0297C38.5636 11.079 38.3901 11.3278 37.9139 11.8475C37.4094 12.3982 35.9788 13.7079 35.5685 13.9946C34.9422 14.4325 34.2204 14.8194 33.7598 14.9643C33.5096 15.043 32.6243 15.2718 31.7924 15.4728C30.0626 15.8906 29.1895 16.1269 28.2233 16.4387L27.5439 16.658L28.1017 17.2186C29.7884 18.9138 31.0282 20.8191 31.8957 23.0497C32.3228 24.1481 32.7399 25.6532 32.8153 26.369C32.8966 27.1399 32.7113 27.8977 32.2633 28.626C32.1599 28.7942 32.0752 28.9404 32.0752 28.9509C32.0752 28.9615 32.8047 28.9701 33.6963 28.9701H35.3175L35.3327 24.7464L35.3479 20.5227L35.4813 20.0562C35.721 19.2184 36.0826 18.5445 36.6514 17.8754C36.987 17.4806 37.2798 17.228 38.0469 16.6713C40.0308 15.2315 42.0701 12.7629 42.8441 10.864C43.1142 10.2013 43.0308 9.53873 42.614 9.03651C42.3958 8.7737 42.0733 8.5469 41.7648 8.43942C41.4562 8.33184 40.9024 8.3059 40.6495 8.38719ZM20.3298 17.4645C19.8301 17.5965 19.4189 17.8232 19.0317 18.1801C18.6082 18.5703 18.3708 18.9232 18.1859 19.4376C18.0555 19.8003 18.0377 19.9143 18.0354 20.4024C18.0332 20.852 18.0542 21.0238 18.1474 21.3169C18.4647 22.3159 19.3549 23.1455 20.3916 23.4086C20.7631 23.5028 21.4808 23.503 21.8882 23.409C22.9713 23.1592 23.9093 22.247 24.1879 21.1725C24.2876 20.7882 24.2991 20.084 24.2115 19.7285C23.9688 18.7437 23.1615 17.8665 22.1878 17.5295C21.6812 17.3542 20.8563 17.3254 20.3298 17.4645ZM13.0837 19.2174C12.4691 19.4323 12.1195 19.938 12.1645 20.5471C12.2013 21.0443 12.8861 22.2481 13.6803 23.212C14.1872 23.8271 15.0881 24.6829 15.721 25.1503C16.8485 25.9829 17.3276 26.6498 17.599 27.7644C17.6636 28.0298 17.6772 28.5456 17.685 31.0285L17.6943 33.9772L21.1466 33.9886L24.599 34V31.3406C24.599 29.8428 24.6179 28.6813 24.6422 28.6813C24.7208 28.6813 25.5063 29.3821 25.9046 29.8075C26.6578 30.612 27.1386 31.4352 27.4534 32.4597C27.5674 32.8304 27.7061 33.2288 27.7617 33.3451C27.8963 33.6268 28.1455 33.8632 28.3731 33.925C28.6437 33.9986 29.0999 33.9871 29.3101 33.9014C29.6791 33.751 30.0039 33.3457 30.1036 32.9114C30.2363 32.3333 29.528 30.3129 28.8062 29.2108C28.0686 28.0844 26.9949 27.0576 25.79 26.3263C24.9645 25.8253 23.6235 25.2428 22.4594 24.8795C22.1889 24.7951 21.2814 24.5565 20.4428 24.3494C19.6042 24.1423 18.7963 23.9277 18.6475 23.8726C18.099 23.6693 17.359 23.156 16.6118 22.4601C15.7186 21.6283 15.4158 21.2597 14.9097 20.3876C14.4737 19.6363 14.2578 19.3782 13.9503 19.2409C13.7215 19.1388 13.3383 19.1284 13.0837 19.2174Z" fill="#163EE1"/>
<path fill-rule="evenodd" clip-rule="evenodd" d="M14.6449 0.0688355C13.8972 0.214197 13.0786 0.557242 12.4773 0.977155C12.0086 1.30441 11.2818 2.08036 10.9871 2.56795C10.4466 3.46251 10.2187 4.29145 10.2191 5.36083C10.2192 5.93159 10.2397 6.11565 10.3529 6.56386C10.506 7.16981 10.8573 7.93065 11.2057 8.41063C12.758 10.5492 15.7025 11.284 18.0686 10.1231C18.703 9.81174 19.0587 9.56193 19.5333 9.09436C20.4464 8.19461 20.982 7.08125 21.1008 5.83575C21.2601 4.16645 20.6882 2.65695 19.451 1.48072C18.6793 0.747127 17.7273 0.263438 16.6678 0.0667658C16.1836 -0.0231468 15.1121 -0.0220397 14.6449 0.0688355ZM1.58007 3.23715C1.1705 3.37664 0.922553 3.53249 0.642096 3.82678C0.35795 4.12496 0.183783 4.41819 0.0794109 4.77404C-0.0165505 5.10144 -0.027027 5.61492 0.0560969 5.91748C0.128941 6.18279 0.668853 7.29549 0.976116 7.81364C2.25883 9.97659 4.48827 12.3636 6.62161 13.8581C7.98036 14.8099 8.95852 16.1601 9.37596 17.6601C9.63959 18.6074 9.64451 18.7239 9.64555 24.0485L9.64653 28.9701H12.9248H16.2031L16.1727 28.5183C16.1525 28.2161 16.1024 27.9623 16.0214 27.7519C15.7963 27.1665 15.5715 26.8982 14.8848 26.3947C13.6404 25.4823 12.283 24.0282 11.5166 22.7867C11.1538 22.1989 10.7787 21.3914 10.6999 21.0281C10.559 20.3792 10.6453 19.7728 10.9628 19.1815C11.807 17.6094 13.9555 17.1756 15.2511 18.3155C15.5033 18.5373 15.9856 19.2081 16.2929 19.7641C16.3841 19.9292 16.4753 20.0646 16.4956 20.0649C16.516 20.0652 16.5325 19.9925 16.5325 19.9032C16.5325 19.6777 16.7427 18.8929 16.8899 18.5688C17.1946 17.8979 17.8688 17.1098 18.485 16.7042C19.4128 16.0935 20.3328 15.8384 21.4148 15.8918C22.0866 15.925 22.4665 16.0164 23.0584 16.2875C24.365 16.8859 25.1786 17.8142 25.6311 19.2231C25.786 19.7056 25.8237 20.7499 25.7065 21.3169C25.532 22.1612 25.1222 22.941 24.5302 23.5553C24.3517 23.7405 24.2056 23.8942 24.2056 23.8969C24.2056 23.8995 24.3549 23.9625 24.5375 24.0368C25.7472 24.5292 27.1553 25.3648 28.052 26.1224C28.7804 26.7378 29.6125 27.6701 30.0448 28.3553L30.2188 28.6309L30.3508 28.539C30.9455 28.1245 31.3962 27.1645 31.3169 26.4809C31.2446 25.8572 30.6652 23.9607 30.2698 23.0538C28.7476 19.5618 26.314 17.0452 22.607 15.1299C20.7711 14.1814 18.6714 13.4408 15.3767 12.5799C12.2467 11.762 11.6501 11.5676 10.704 11.0574C9.4096 10.3592 8.6277 9.74122 6.94122 8.08338C6.09473 7.2512 5.71659 6.78494 5.23649 5.98116C5.02445 5.62618 4.67385 5.0391 4.45743 4.67657C3.98766 3.88959 3.61626 3.47661 3.19149 3.26891C2.91581 3.13409 2.85354 3.12288 2.39606 3.12548C2.01315 3.12764 1.82673 3.15315 1.58007 3.23715ZM40.6495 8.38719C40.1249 8.55571 39.9038 8.80306 39.1814 10.0297C38.5636 11.079 38.3901 11.3278 37.9139 11.8475C37.4094 12.3982 35.9788 13.7079 35.5685 13.9946C34.9422 14.4325 34.2204 14.8194 33.7598 14.9643C33.5096 15.043 32.6243 15.2718 31.7924 15.4728C30.0626 15.8906 29.1895 16.1269 28.2233 16.4387L27.5439 16.658L28.1017 17.2186C29.7884 18.9138 31.0282 20.8191 31.8957 23.0497C32.3228 24.1481 32.7399 25.6532 32.8153 26.369C32.8966 27.1399 32.7113 27.8977 32.2633 28.626C32.1599 28.7942 32.0752 28.9404 32.0752 28.9509C32.0752 28.9615 32.8047 28.9701 33.6963 28.9701H35.3175L35.3327 24.7464L35.3479 20.5227L35.4813 20.0562C35.721 19.2184 36.0826 18.5445 36.6514 17.8754C36.987 17.4806 37.2798 17.228 38.0469 16.6713C40.0308 15.2315 42.0701 12.7629 42.8441 10.864C43.1142 10.2013 43.0308 9.53873 42.614 9.03651C42.3958 8.7737 42.0733 8.5469 41.7648 8.43942C41.4562 8.33184 40.9024 8.3059 40.6495 8.38719Z" fill="black"/>
</svg>
