<svg width="20" height="20" viewBox="0 0 20 20" fill="none" xmlns="http://www.w3.org/2000/svg">
<path fill-rule="evenodd" clip-rule="evenodd" d="M9.62341 1.66667C9.48545 1.66667 9.36085 1.7501 9.30689 1.8786L6.53576 8.47785C6.14821 9.40077 5.25327 10 4.26245 10L3.29346 10C2.38399 10 1.64673 10.7462 1.64673 11.6667L1.64673 16.6667C1.64673 17.5871 2.38399 18.3333 3.29346 18.3333L15.2938 18.3333C16.0703 18.3333 16.7413 17.7843 16.904 17.0159L18.3155 10.3492C18.5351 9.3117 17.7537 8.33333 16.7053 8.33333L12.8639 8.33333C11.6321 8.33333 10.6761 7.24574 10.8195 6.00752L11.1244 3.3742C11.2296 2.46514 10.5277 1.66667 9.62341 1.66667ZM7.79135 1.2267C8.10368 0.482918 8.82491 7.71498e-07 9.62341 8.41305e-07C11.5132 1.00651e-06 12.9798 1.66856 12.7599 3.56819L12.455 6.20151C12.4263 6.44915 12.6175 6.66667 12.8639 6.66667L16.7053 6.66667C18.802 6.66667 20.365 8.62339 19.9256 10.6984L18.5141 17.3651C18.1888 18.902 16.8468 20 15.2938 20L3.29346 20C1.47453 20 -1.61799e-06 18.5076 -1.45705e-06 16.6667L-1.01993e-06 11.6667C-8.58991e-07 9.82572 1.47453 8.33333 3.29346 8.33333L4.26245 8.33333C4.59272 8.33333 4.89104 8.13359 5.02022 7.82595L7.79135 1.2267Z" fill="#2F3339"/>
</svg>
