<svg width="25" height="36" viewBox="0 0 25 36" fill="none" xmlns="http://www.w3.org/2000/svg">
<path fill-rule="evenodd" clip-rule="evenodd" d="M19.4491 0.097804C19.3356 0.192666 16.8849 3.80377 16.8187 3.97371C16.7925 4.04086 17.7014 4.63903 20.096 6.13062L20.4386 6.34403L21.7266 4.38635C22.5433 3.14522 23.023 2.3606 23.0372 2.24258C23.0534 2.1081 23.0205 2.01499 22.9188 1.90718C22.7903 1.77113 20.4539 0.29097 20.0402 0.0836275C19.8084 -0.0325284 19.599 -0.0275697 19.4491 0.097804ZM15.4147 4.86813C15.3157 4.94893 15.1008 5.218 14.9373 5.46612C14.7737 5.71424 13.3084 7.93165 11.681 10.3937C10.0536 12.8556 8.69427 14.9411 8.66021 15.0278C8.52882 15.3628 8.60833 15.4283 10.8124 16.8018C11.9545 17.5135 12.9685 18.1249 13.0659 18.1605C13.4107 18.2866 13.5634 18.1156 14.8459 16.1674L15.2416 15.5662L15.0976 15.4735C14.7868 15.2736 14.205 14.6284 14.0307 14.2902C13.1927 12.6648 13.8848 10.6138 15.5346 9.83291C16.5968 9.33013 17.6208 9.31659 18.6038 9.79224L18.9438 9.95676L19.562 9.01806C19.902 8.50175 20.2082 8.00732 20.2425 7.91928C20.3661 7.60191 20.2521 7.47548 19.3158 6.89225C16.9588 5.42382 15.9022 4.79019 15.7556 4.75734C15.6357 4.73051 15.5489 4.75868 15.4147 4.86813ZM16.3742 10.0643C15.6054 10.2647 14.8251 10.8874 14.5034 11.5573C14.1371 12.3198 14.1271 13.2561 14.4773 13.9737C14.7024 14.435 15.2037 14.9338 15.69 15.1803C16.2158 15.447 16.4948 15.5158 17.266 15.5692L17.8977 15.6129L18.5322 16.252C20.0611 17.7922 20.7616 19.3744 20.7616 21.2874C20.7616 22.515 20.4911 23.6342 19.9202 24.7681C18.8678 26.8583 17.0078 28.2455 14.6207 28.7203C12.7298 29.0964 10.4738 28.6938 9.12473 27.7395C8.75675 27.4792 8.42319 27.2071 8.42319 27.1671C8.42319 27.1557 8.56734 27.1563 8.74345 27.1684C9.34002 27.2096 10.0858 27.0957 10.3563 26.9222C10.6903 26.7079 10.8572 26.3399 10.8122 25.917C10.77 25.5205 10.6045 25.2617 10.2769 25.0799L10.0182 24.9363H5.43922H0.860225L0.568677 25.1113C-0.153872 25.545 -0.195763 26.4942 0.488207 26.933C0.719627 27.0814 0.793958 27.0947 1.59102 27.1297C2.11934 27.1529 2.51098 27.198 2.61661 27.2477C2.71701 27.295 2.95047 27.5597 3.1828 27.8895C3.97637 29.016 4.77385 29.8276 5.88027 30.6348C6.18645 30.8582 6.43701 31.052 6.43701 31.0655C6.43701 31.079 6.18958 31.2105 5.88714 31.3577C4.94556 31.8161 4.11251 32.3539 3.29222 33.0331L2.94614 33.3197V34.1598V35H13.1195H23.2928L23.2761 34.2008L23.2594 33.4015L22.7911 33.0093C22.1642 32.4841 21.2179 31.866 20.4064 31.4518L19.7411 31.1123L20.1761 30.7668C21.1 30.033 21.6795 29.4891 22.1791 28.8871C23.4449 27.3618 24.2381 25.9055 24.6646 24.3237C24.9647 23.2111 25.0052 22.8753 24.9995 21.5525C24.9949 20.4804 24.9743 20.228 24.835 19.5321C24.5263 17.9905 23.8239 16.2207 23.0695 15.0832C22.4301 14.1191 21.3641 13.0062 20.4092 12.3056C20.0629 12.0515 19.9106 11.8868 19.6774 11.5145C18.9102 10.2891 17.6441 9.73326 16.3742 10.0643ZM17.5756 11.4306C17.8959 11.5168 18.2669 11.8541 18.3942 12.1749C18.864 13.3586 17.8012 14.4927 16.6053 14.0838C15.8456 13.8239 15.4768 13.0746 15.7192 12.2831C15.8099 11.9873 16.2765 11.5173 16.5573 11.4389C16.8277 11.3635 17.3118 11.3595 17.5756 11.4306ZM7.82691 17.5934C7.4824 18.1246 7.18808 18.6223 7.17292 18.6994C7.15769 18.7764 7.18736 18.9018 7.23888 18.9779C7.32369 19.1034 9.69381 20.6181 10.2266 20.8873C10.6248 21.0885 10.7259 21.0087 11.4964 19.8844C11.8907 19.3092 12.1519 18.874 12.1198 18.8458C12.0135 18.7526 8.53761 16.6227 8.49566 16.6252C8.47236 16.6265 8.17142 17.0622 7.82691 17.5934Z" fill="#163EE1"/>
<path fill-rule="evenodd" clip-rule="evenodd" d="M16.3742 10.0941C15.6054 10.2945 14.8251 10.9172 14.5034 11.5872C14.1371 12.3496 14.1271 13.2859 14.4773 14.0036C14.7024 14.4648 15.2037 14.9636 15.69 15.2102C16.2158 15.4768 16.4948 15.5456 17.266 15.599L17.8977 15.6427L18.5322 16.2818C20.0611 17.8221 20.7616 19.4042 20.7616 21.3172C20.7616 22.5449 20.4911 23.6641 19.9202 24.798C18.8678 26.8882 17.0078 28.2754 14.6207 28.7501C12.7298 29.1262 10.4738 28.7236 9.12473 27.7693C8.75675 27.509 8.42319 27.2369 8.42319 27.197C8.42319 27.1856 8.56734 27.1861 8.74345 27.1983C9.34002 27.2394 10.0858 27.1256 10.3563 26.952C10.6903 26.7378 10.8572 26.3698 10.8122 25.9469C10.77 25.5504 10.6045 25.2915 10.2769 25.1097L10.0182 24.9661H5.43922H0.860225L0.568677 25.1411C-0.153872 25.5749 -0.195763 26.5241 0.488207 26.9629C0.719627 27.1113 0.793958 27.1246 1.59102 27.1595C2.11934 27.1828 2.51098 27.2278 2.61661 27.2776C2.71701 27.3249 2.95047 27.5895 3.1828 27.9193C3.97637 29.0458 4.77385 29.8575 5.88027 30.6647C6.18645 30.8881 6.43701 31.0819 6.43701 31.0954C6.43701 31.1088 6.18958 31.2403 5.88714 31.3875C4.94556 31.8459 4.11251 32.3838 3.29222 33.063L2.94614 33.3495V34.1897V35.0298H13.1195H23.2928L23.2761 34.2306L23.2594 33.4314L22.7911 33.0391C22.1642 32.5139 21.2179 31.8959 20.4064 31.4817L19.7411 31.1422L20.1761 30.7967C21.1 30.0629 21.6795 29.5189 22.1791 28.917C23.4449 27.3917 24.2381 25.9354 24.6646 24.3535C24.9647 23.241 25.0052 22.9051 24.9995 21.5824C24.9949 20.5102 24.9743 20.2579 24.835 19.562C24.5263 18.0203 23.8239 16.2505 23.0695 15.113C22.4301 14.149 21.3641 13.036 20.4092 12.3354C20.0629 12.0813 19.9106 11.9166 19.6774 11.5443C18.9102 10.3189 17.6441 9.76311 16.3742 10.0941ZM17.5756 11.4604C17.8959 11.5466 18.2669 11.884 18.3942 12.2048C18.864 13.3884 17.8012 14.5226 16.6053 14.1136C15.8456 13.8538 15.4768 13.1044 15.7192 12.313C15.8099 12.0172 16.2765 11.5471 16.5573 11.4688C16.8277 11.3933 17.3118 11.3893 17.5756 11.4604Z" fill="black"/>
</svg>
