<svg width="26" height="35" viewBox="0 0 26 35" fill="none" xmlns="http://www.w3.org/2000/svg">
<path fill-rule="evenodd" clip-rule="evenodd" d="M13.1226 0.0093543C12.3554 0.115674 11.9619 0.227185 11.4583 0.481007C10.2927 1.06848 9.44962 2.11222 9.10187 3.39806C9.0086 3.74286 9 3.83629 9 4.50524C9 5.17419 9.0086 5.26763 9.10187 5.61243C9.56426 7.32217 10.9183 8.59708 12.6284 8.93292C13.0837 9.02236 13.8943 9.02236 14.3497 8.93292C16.0616 8.59674 17.4313 7.30567 17.8724 5.61243C17.9938 5.14651 18.0365 4.3514 17.9659 3.87006C17.6867 1.96691 16.2261 0.439248 14.3411 0.0788755C14.0405 0.0214282 13.3286 -0.0191771 13.1226 0.0093543Z" fill="#163EE1"/>
<path fill-rule="evenodd" clip-rule="evenodd" d="M8.79745 10.0751C8.45879 10.2043 8.12746 10.4396 7.68242 10.8668C7.45443 11.0856 5.70697 12.9151 3.79921 14.9322C0.420989 18.5041 0.326521 18.6083 0.177567 18.9308C0.0401984 19.2281 0.0226982 19.3044 0.00608922 19.6783C-0.00946648 20.0285 0.00167383 20.1387 0.0761305 20.3702C0.297961 21.0602 0.784077 21.524 1.44965 21.6806C1.85098 21.7751 2.26766 21.7197 2.66283 21.5192C2.91059 21.3935 3.14555 21.159 5.45468 18.7325L7.97604 16.083L7.98653 18.1744L7.99706 20.2657H13H18.0029L18.0135 18.1744L18.024 16.083L20.5453 18.7348C22.8804 21.1908 23.0867 21.3966 23.3384 21.5217C23.737 21.7198 24.1525 21.7743 24.5504 21.6806C25.2159 21.524 25.702 21.0602 25.9239 20.3702C25.9983 20.1387 26.0095 20.0285 25.9939 19.6783C25.9773 19.305 25.9596 19.2275 25.823 18.9308C25.6739 18.6067 25.5905 18.5152 21.8773 14.6019C18.0043 10.5201 17.8638 10.3819 17.3112 10.111L17.1117 10.0132L13.0608 10.0037C9.17273 9.99447 9.00125 9.99738 8.79745 10.0751ZM7.3041 22.625C6.21593 23.844 5.68246 24.562 5.1103 25.5778C4.08618 27.396 4.12102 28.5268 5.27968 31.0736C5.63612 31.8571 5.98268 32.4975 6.40078 33.1454C6.97938 34.0421 7.47274 34.5621 8.01294 34.8447C8.27459 34.9816 8.34873 35.0011 8.60033 34.9999C8.81126 34.9989 8.93162 34.9747 9.05031 34.9096C9.26129 34.7937 9.32716 34.7128 9.46169 34.4045C9.55875 34.182 9.57515 34.0837 9.58966 33.636C9.61011 33.0069 9.53116 32.3947 9.31362 31.4955C9.14073 30.7809 8.83573 29.7971 8.58563 29.1473C8.43335 28.7518 8.42731 28.7204 8.49343 28.6685C8.53236 28.6379 8.91967 28.3676 9.35413 28.0678C10.0244 27.6053 11.1592 26.7377 11.5513 26.388L11.6623 26.2891L9.78256 24.1757C8.74872 23.0134 7.88631 22.0566 7.86609 22.0495C7.84588 22.0424 7.59298 22.3013 7.3041 22.625ZM16.2279 24.1638L14.3378 26.2891L14.4487 26.388C14.84 26.7371 15.9754 27.6052 16.6459 28.0678C17.0803 28.3676 17.4676 28.6379 17.5066 28.6685C17.5727 28.7204 17.5667 28.7518 17.4144 29.1473C17.1643 29.7971 16.8593 30.7809 16.6864 31.4955C16.4688 32.3947 16.3899 33.0069 16.4103 33.636C16.4248 34.0837 16.4413 34.182 16.5383 34.4045C16.6728 34.7128 16.7387 34.7937 16.9497 34.9096C17.0684 34.9747 17.1887 34.9989 17.3997 34.9999C17.6513 35.0011 17.7254 34.9816 17.9871 34.8447C18.5273 34.5621 19.0206 34.0421 19.5992 33.1454C20.1911 32.2283 20.7816 31.0432 21.2008 29.9319C21.6968 28.6166 21.748 27.623 21.374 26.5733C21.1144 25.8451 20.2696 24.4822 19.5031 23.5551C19.0914 23.0571 18.179 22.0386 18.1446 22.0386C18.13 22.0386 17.2675 22.995 16.2279 24.1638Z" fill="black"/>
</svg>
