<svg width="28" height="35" viewBox="0 0 28 35" fill="none" xmlns="http://www.w3.org/2000/svg">
<path fill-rule="evenodd" clip-rule="evenodd" d="M20.1761 4.00796C18.4424 6.2185 17.017 8.04524 17.0086 8.06735C16.9999 8.09015 17.9802 8.10756 19.2753 8.10756C21.5147 8.10756 21.5595 8.10934 21.6776 8.20226C21.7616 8.26832 21.798 8.33991 21.798 8.43919C21.798 8.5598 21.2264 10.7776 20.3371 14.1076C20.2002 14.6204 20.1437 14.8982 20.1848 14.8571C20.2207 14.8212 21.6527 13.0051 23.367 10.8215L26.4838 6.8512L24.1914 6.82836C22.0554 6.80707 21.8926 6.79985 21.8068 6.72219C21.7562 6.67636 21.7029 6.59116 21.6882 6.53278C21.6718 6.46749 21.9877 5.1925 22.5091 3.21897C22.9752 1.45478 23.3503 0.00622901 23.3425 1.57715e-05C23.3348 -0.00615178 21.9099 1.79738 20.1761 4.00796ZM9.61857 5.7997C9.46553 5.83301 9.19827 5.91698 9.02466 5.98628C8.40987 6.2318 8.10442 6.45091 7.40351 7.14907C6.98941 7.56157 6.6698 7.84139 6.55833 7.88909C6.45978 7.93121 6.25004 8.01605 6.09224 8.07754C5.05929 8.48021 4.28465 9.37131 4.06431 10.4103C3.98203 10.7982 3.82583 11.0469 3.46866 11.3586C2.86812 11.8827 2.65089 12.1417 2.40761 12.6234C2.17644 13.0811 2.10407 13.4879 2.11792 14.252C2.12998 14.9169 2.12664 14.9451 2.00676 15.1888C1.93883 15.327 1.74106 15.5992 1.56727 15.7936C1.21142 16.1918 0.978063 16.6034 0.822092 17.1076C0.736889 17.383 0.716285 17.5533 0.717015 17.9756C0.717838 18.458 0.730721 18.5366 0.874539 18.935C1.00077 19.2848 1.0311 19.4356 1.03078 19.7117C1.03037 20.0285 1.01237 20.0928 0.792488 20.5645C0.496126 21.2001 0.404252 21.5714 0.398678 22.1559C0.393196 22.7277 0.478446 22.9992 0.946495 23.9012C1.39184 24.7595 1.41052 24.8754 1.23906 25.7193C1.17392 26.0401 1.20352 26.5992 1.30682 26.9985C1.37502 27.2622 1.47416 27.4784 1.85774 28.1997C2.0609 28.5819 2.0831 28.8165 1.9789 29.4815C1.90269 29.968 1.96117 30.3871 2.16036 30.7821C2.68382 31.82 3.69306 32.4632 5.07706 32.6406C5.94637 32.7521 6.38257 32.9811 7.08723 33.696C7.79161 34.4107 8.21411 34.671 9.02886 34.8924C9.56165 35.0372 10.6121 35.0356 11.1217 34.8892C12.3062 34.549 13.1143 33.7176 13.3236 32.624C13.4427 32.0015 13.3969 30.9353 13.2232 30.2879C12.9928 29.4291 12.3445 28.6473 11.6902 28.4394C11.4905 28.3759 11.3817 28.2417 11.3817 28.059C11.3817 27.8757 11.4502 27.7692 11.6024 27.7162C11.8886 27.6164 12.5373 27.9551 13.0572 28.4758L13.3918 28.8109V25.5868C13.3918 23.7757 13.3732 22.2774 13.3494 22.1679C13.3261 22.0608 13.2757 21.8007 13.2373 21.5899C13.0783 20.7164 12.4921 19.8976 11.7064 19.4513C11.4377 19.2986 11.3817 19.2274 11.3817 19.0384C11.3817 18.8597 11.5516 18.6609 11.7044 18.6609C11.9787 18.6609 12.7838 19.2463 13.1634 19.7218L13.369 19.9794L13.3806 15.7493C13.3871 13.4228 13.3828 11.5097 13.3712 11.4981C13.3596 11.4865 13.2516 11.5641 13.1311 11.6705C12.8495 11.9192 12.4881 12.1269 12.3358 12.1275C12.1374 12.1282 11.9756 11.9662 11.9756 11.7671C11.9756 11.5742 12.0537 11.4847 12.3883 11.2941C12.6712 11.1331 13.0089 10.7607 13.1484 10.4561C13.3128 10.0971 13.3553 9.66452 13.3013 8.90075C13.2122 7.63992 12.9694 6.92174 12.4567 6.40262C11.9841 5.92411 11.4056 5.72962 10.4721 5.73552C10.1557 5.73753 9.77166 5.7664 9.61857 5.7997ZM16.096 5.82442C15.6681 5.93653 15.3625 6.10424 15.0806 6.38169C14.5543 6.89981 14.3032 7.629 14.2133 8.90075C14.1593 9.66452 14.2019 10.0971 14.3663 10.4561C14.5057 10.7607 14.8434 11.1331 15.1263 11.2941C15.461 11.4847 15.5391 11.5742 15.5391 11.7671C15.5391 11.9662 15.3772 12.1282 15.1788 12.1275C15.0266 12.1269 14.6651 11.9192 14.3835 11.6705C14.2631 11.5641 14.155 11.4865 14.1434 11.4981C14.1318 11.5097 14.1276 13.4228 14.134 15.7493L14.1456 19.9794L14.3512 19.7218C14.7309 19.2463 15.5359 18.6609 15.8102 18.6609C15.963 18.6609 16.133 18.8597 16.133 19.0384C16.133 19.2331 16.0809 19.2938 15.7485 19.4865C15.3868 19.6962 14.8651 20.2153 14.6543 20.5753C14.4424 20.937 14.2832 21.4024 14.2075 21.8818C14.1659 22.1448 14.1457 23.1687 14.1356 25.5334L14.1216 28.8196L14.4077 28.5228C14.845 28.0693 15.4433 27.7059 15.7678 27.6967C15.956 27.6913 16.133 27.8612 16.133 28.0471C16.133 28.2511 16.0266 28.3744 15.7789 28.457C15.4792 28.5571 15.0303 28.9095 14.7852 29.2371C14.3694 29.793 14.1759 30.4738 14.1363 31.5214C14.0961 32.5827 14.2751 33.2571 14.7582 33.8649C15.113 34.3112 15.7792 34.7211 16.4528 34.9078C16.9072 35.0336 17.9963 35.0254 18.4858 34.8924C19.3005 34.671 19.723 34.4107 20.4274 33.696C21.1513 32.9615 21.5382 32.7648 22.5383 32.6226C23.8686 32.4333 24.8416 31.7973 25.3541 30.7822C25.5587 30.3768 25.6132 29.9966 25.5377 29.5011C25.4322 28.81 25.453 28.5832 25.6569 28.1997C26.0405 27.4784 26.1396 27.2622 26.2078 26.9985C26.3111 26.5992 26.3407 26.0401 26.2756 25.7193C26.1047 24.878 26.1224 24.7678 26.5674 23.9058C27.0371 22.9961 27.1214 22.7269 27.116 22.1559C27.1103 21.5707 27.0183 21.1995 26.7215 20.5645C26.4941 20.078 26.4832 20.0374 26.4868 19.6888C26.4898 19.3896 26.5179 19.253 26.6417 18.935C26.7817 18.5753 26.7931 18.5062 26.7961 17.9985C26.7988 17.5468 26.7806 17.3899 26.693 17.1076C26.5362 16.6026 26.3028 16.1914 25.9474 15.7936C25.7736 15.5992 25.5758 15.327 25.5079 15.1888C25.388 14.9451 25.3847 14.9169 25.3967 14.252C25.407 13.6879 25.393 13.5035 25.318 13.2104C25.2069 12.7758 24.9762 12.326 24.6874 11.9808C24.4145 11.6547 23.9494 11.271 23.9075 11.3374C23.8905 11.3643 22.9001 12.6312 21.7066 14.1529C20.2798 15.9718 19.4935 16.9379 19.4109 16.9734C19.1508 17.085 18.8884 16.8555 18.9294 16.5521C18.9408 16.4682 19.3956 14.7187 19.94 12.6644C20.4845 10.6101 20.93 8.90884 20.93 8.88389C20.93 8.85447 20.076 8.83802 18.4972 8.83706C16.6569 8.83597 16.0468 8.82208 15.9919 8.77996C15.8782 8.69265 15.803 8.51978 15.8307 8.40935C15.8446 8.35389 16.2984 7.74417 16.8392 7.05446C17.9772 5.60294 17.9597 5.7447 17.001 5.73981C16.5776 5.73766 16.3436 5.75955 16.096 5.82442ZM6.10225 11.1218C6.16685 11.1463 6.25287 11.236 6.29344 11.3211C6.40564 11.5564 6.31669 11.6953 5.90954 11.9208C5.72666 12.0222 5.4955 12.1823 5.39586 12.2767C4.94375 12.7049 4.67265 13.3561 4.6309 14.1145C4.60769 14.5355 4.59599 14.5805 4.47945 14.697C4.32343 14.853 4.16331 14.8583 3.99459 14.7129C3.87023 14.6058 3.86667 14.5901 3.87535 14.1906C3.90454 12.8522 4.57904 11.7173 5.64813 11.2078C5.9598 11.0593 5.94523 11.062 6.10225 11.1218ZM10.01 13.5887C10.2525 13.8312 10.1497 14.0734 9.70994 14.295C9.31764 14.4927 8.90314 14.9237 8.71103 15.3335C8.52874 15.7224 8.41211 16.2454 8.41211 16.6737C8.41211 16.9324 8.39635 16.9905 8.29995 17.0868C8.07815 17.3087 7.7271 17.1865 7.67045 16.8676C7.65811 16.7985 7.66638 16.5428 7.68872 16.2994C7.79499 15.1436 8.40557 14.15 9.30389 13.6711C9.66394 13.4792 9.87574 13.4545 10.01 13.5887ZM4.77805 17.7299C4.858 17.7606 4.98569 17.9766 4.98569 18.0812C4.98569 18.1166 4.8612 18.2975 4.70902 18.4832C3.84515 19.5373 3.48593 21.2692 3.91089 22.3314C4.05489 22.6913 4.05544 22.7933 3.91414 22.9346C3.70152 23.1472 3.44504 23.0675 3.27751 22.7367C3.09888 22.384 3.01792 22.0468 2.98992 21.5391C2.91833 20.2411 3.42763 18.7391 4.2195 17.9126C4.42216 17.7011 4.57379 17.6515 4.77805 17.7299ZM23.2951 17.9126C24.4201 19.0868 24.8836 21.4601 24.2371 22.7367C24.0696 23.0675 23.8131 23.1472 23.6005 22.9346C23.4592 22.7934 23.4597 22.6913 23.6035 22.332C24.0277 21.2717 23.6677 19.5352 22.8056 18.4832C22.6534 18.2975 22.5289 18.1166 22.5289 18.0812C22.5289 17.9867 22.6549 17.7592 22.7221 17.7321C22.7541 17.7192 22.8506 17.7071 22.9365 17.7051C23.065 17.7022 23.1288 17.7391 23.2951 17.9126ZM7.22099 21.9714C7.44476 22.0872 7.47327 22.3466 7.2892 22.5924C6.92527 23.0784 6.7577 23.6623 6.75884 24.4401C6.76026 25.4102 7.05301 26.1969 7.63769 26.8017C7.95936 27.1344 7.99783 27.2216 7.90212 27.4013C7.70604 27.7694 7.33055 27.6437 6.85208 27.0498C5.92923 25.9043 5.72511 23.9855 6.3834 22.6433C6.55874 22.2857 6.88365 21.9046 7.01312 21.9046C7.05639 21.9046 7.14991 21.9347 7.22099 21.9714ZM20.7478 22.0705C20.9753 22.276 21.262 22.8451 21.3892 23.3437C21.7111 24.6051 21.4149 26.116 20.6626 27.0498C20.1802 27.6485 19.8089 27.7698 19.6086 27.394C19.5189 27.2255 19.5874 27.0785 19.8986 26.7718C20.4496 26.2289 20.7544 25.3998 20.7558 24.4401C20.7569 23.6623 20.5894 23.0784 20.2254 22.5924C20.0399 22.3447 20.0755 22.0874 20.3132 21.9574C20.466 21.8738 20.5561 21.8972 20.7478 22.0705ZM23.5411 27.5264C23.6642 27.6946 23.7625 28.1406 23.7618 28.5272C23.7595 29.6755 23.0336 30.9249 22.1006 31.386C21.8074 31.5309 21.7594 31.542 21.6253 31.4952C21.4588 31.4372 21.3868 31.3348 21.3868 31.1559C21.3868 30.9731 21.4683 30.8584 21.6532 30.7812C22.4886 30.4322 23.1614 29.1484 22.9853 28.2394C22.9553 28.0846 22.9203 27.9016 22.9075 27.8329C22.8702 27.6322 22.928 27.4955 23.0817 27.4211C23.2584 27.3355 23.4302 27.3748 23.5411 27.5264ZM4.53308 27.4825C4.6377 27.5871 4.63734 27.701 4.53062 28.2394C4.35121 29.1445 5.02526 30.4318 5.86148 30.7812C6.21303 30.928 6.233 31.3754 5.89328 31.4939C5.76888 31.5372 5.71186 31.5278 5.49431 31.4282C4.66589 31.049 4.00925 30.1261 3.79608 29.0414C3.69101 28.5065 3.80138 27.7015 4.01172 27.4691C4.11757 27.3521 4.41024 27.3596 4.53308 27.4825Z" fill="#163EE1"/>
<path fill-rule="evenodd" clip-rule="evenodd" d="M9.61857 5.77526C9.46553 5.80856 9.19827 5.89253 9.02466 5.96184C8.40987 6.20735 8.10442 6.42646 7.40351 7.12462C6.98941 7.53712 6.6698 7.81694 6.55833 7.86464C6.45978 7.90676 6.25004 7.9916 6.09224 8.05309C5.05929 8.45576 4.28465 9.34686 4.06431 10.3858C3.98203 10.7737 3.82583 11.0224 3.46866 11.3341C2.86812 11.8583 2.65089 12.1173 2.40761 12.5989C2.17644 13.0566 2.10407 13.4635 2.11792 14.2276C2.12998 14.8925 2.12664 14.9206 2.00676 15.1644C1.93883 15.3026 1.74106 15.5748 1.56727 15.7692C1.21142 16.1674 0.978063 16.5789 0.822092 17.0832C0.736889 17.3586 0.716285 17.5288 0.717015 17.9512C0.717838 18.4335 0.730721 18.5121 0.874539 18.9106C1.00077 19.2603 1.0311 19.4111 1.03078 19.6872C1.03037 20.004 1.01237 20.0684 0.792488 20.5401C0.496126 21.1757 0.404252 21.5469 0.398678 22.1314C0.393196 22.7032 0.478446 22.9748 0.946495 23.8768C1.39184 24.735 1.41052 24.851 1.23906 25.6949C1.17392 26.0156 1.20352 26.5748 1.30682 26.9741C1.37502 27.2377 1.47416 27.4539 1.85774 28.1752C2.0609 28.5574 2.0831 28.7921 1.9789 29.4571C1.90269 29.9436 1.96117 30.3626 2.16036 30.7576C2.68382 31.7956 3.69306 32.4387 5.07706 32.6162C5.94637 32.7276 6.38257 32.9567 7.08723 33.6716C7.79161 34.3862 8.21411 34.6466 9.02886 34.868C9.56165 35.0127 10.6121 35.0111 11.1217 34.8648C12.3062 34.5245 13.1143 33.6931 13.3236 32.5995C13.4427 31.9771 13.3969 30.9109 13.2232 30.2634C12.9928 29.4046 12.3445 28.6229 11.6902 28.4149C11.4905 28.3515 11.3817 28.2173 11.3817 28.0345C11.3817 27.8513 11.4502 27.7448 11.6024 27.6918C11.8886 27.5919 12.5373 27.9307 13.0572 28.4513L13.3918 28.7865V25.5624C13.3918 23.7513 13.3732 22.2529 13.3494 22.1435C13.3261 22.0363 13.2757 21.7762 13.2373 21.5654C13.0783 20.692 12.4921 19.8732 11.7064 19.4268C11.4377 19.2742 11.3817 19.203 11.3817 19.014C11.3817 18.8352 11.5516 18.6365 11.7044 18.6365C11.9787 18.6365 12.7838 19.2219 13.1634 19.6974L13.369 19.9549L13.3806 15.7248C13.3871 13.3983 13.3828 11.4853 13.3712 11.4737C13.3596 11.4621 13.2516 11.5396 13.1311 11.646C12.8495 11.8948 12.4881 12.1025 12.3358 12.103C12.1374 12.1037 11.9756 11.9418 11.9756 11.7426C11.9756 11.5497 12.0537 11.4602 12.3883 11.2697C12.6712 11.1086 13.0089 10.7362 13.1484 10.4317C13.3128 10.0726 13.3553 9.64007 13.3013 8.8763C13.2122 7.61547 12.9694 6.89729 12.4567 6.37817C11.9841 5.89966 11.4056 5.70517 10.4721 5.71107C10.1557 5.71308 9.77166 5.74195 9.61857 5.77526ZM16.096 5.79997C15.6681 5.91208 15.3625 6.0798 15.0806 6.35724C14.5543 6.87536 14.3032 7.60455 14.2133 8.8763C14.1593 9.64007 14.2019 10.0726 14.3663 10.4317C14.5057 10.7362 14.8434 11.1086 15.1263 11.2697C15.461 11.4602 15.5391 11.5497 15.5391 11.7426C15.5391 11.9418 15.3772 12.1037 15.1788 12.103C15.0266 12.1025 14.6651 11.8948 14.3835 11.646C14.2631 11.5396 14.155 11.4621 14.1434 11.4737C14.1318 11.4853 14.1276 13.3983 14.134 15.7248L14.1456 19.9549L14.3512 19.6974C14.7309 19.2219 15.5359 18.6365 15.8102 18.6365C15.963 18.6365 16.133 18.8352 16.133 19.014C16.133 19.2086 16.0809 19.2694 15.7485 19.4621C15.3868 19.6717 14.8651 20.1908 14.6543 20.5509C14.4424 20.9125 14.2832 21.378 14.2075 21.8573C14.1659 22.1203 14.1457 23.1442 14.1356 25.5089L14.1216 28.7951L14.4077 28.4983C14.845 28.0449 15.4433 27.6814 15.7678 27.6722C15.956 27.6669 16.133 27.8367 16.133 28.0227C16.133 28.2267 16.0266 28.3499 15.7789 28.4326C15.4792 28.5326 15.0303 28.8851 14.7852 29.2127C14.3694 29.7685 14.1759 30.4494 14.1363 31.497C14.0961 32.5582 14.2751 33.2326 14.7582 33.8404C15.113 34.2867 15.7792 34.6967 16.4528 34.8833C16.9072 35.0092 17.9963 35.001 18.4858 34.868C19.3005 34.6466 19.723 34.3862 20.4274 33.6716C21.1513 32.9371 21.5382 32.7404 22.5383 32.5981C23.8686 32.4088 24.8416 31.7729 25.3541 30.7577C25.5587 30.3523 25.6132 29.9721 25.5377 29.4767C25.4322 28.7856 25.453 28.5587 25.6569 28.1752C26.0405 27.4539 26.1396 27.2377 26.2078 26.9741C26.3111 26.5748 26.3407 26.0156 26.2756 25.6949C26.1047 24.8535 26.1224 24.7433 26.5674 23.8814C27.0371 22.9716 27.1214 22.7025 27.116 22.1314C27.1103 21.5463 27.0183 21.175 26.7215 20.5401C26.4941 20.0535 26.4832 20.0129 26.4868 19.6644C26.4898 19.3652 26.5179 19.2286 26.6417 18.9106C26.7817 18.5509 26.7931 18.4818 26.7961 17.974C26.7988 17.5223 26.7806 17.3655 26.693 17.0832C26.5362 16.5782 26.3028 16.167 25.9474 15.7692C25.7736 15.5748 25.5758 15.3026 25.5079 15.1644C25.388 14.9206 25.3847 14.8925 25.3967 14.2276C25.407 13.6634 25.393 13.4791 25.318 13.186C25.2069 12.7513 24.9762 12.3016 24.6874 11.9563C24.4145 11.6302 23.9494 11.2465 23.9075 11.313C23.8905 11.3398 22.9001 12.6068 21.7066 14.1284C20.2798 15.9474 19.4935 16.9135 19.4109 16.9489C19.1508 17.0606 18.8884 16.8311 18.9294 16.5277C18.9408 16.4437 19.3956 14.6942 19.94 12.6399C20.4845 10.5856 20.93 8.88439 20.93 8.85944C20.93 8.83002 20.076 8.81357 18.4972 8.81261C16.6569 8.81152 16.0468 8.79763 15.9919 8.75551C15.8782 8.6682 15.803 8.49533 15.8307 8.38491C15.8446 8.32944 16.2984 7.71972 16.8392 7.03001C17.9772 5.57849 17.9597 5.72025 17.001 5.71536C16.5776 5.71321 16.3436 5.7351 16.096 5.79997ZM6.10225 11.0973C6.16685 11.1219 6.25287 11.2116 6.29344 11.2967C6.40564 11.5319 6.31669 11.6708 5.90954 11.8964C5.72666 11.9977 5.4955 12.1578 5.39586 12.2522C4.94375 12.6804 4.67265 13.3316 4.6309 14.09C4.60769 14.511 4.59599 14.556 4.47945 14.6726C4.32343 14.8286 4.16331 14.8338 3.99459 14.6885C3.87023 14.5813 3.86667 14.5657 3.87535 14.1661C3.90454 12.8277 4.57904 11.6928 5.64813 11.1834C5.9598 11.0349 5.94523 11.0376 6.10225 11.0973ZM10.01 13.5642C10.2525 13.8068 10.1497 14.049 9.70994 14.2705C9.31764 14.4683 8.90314 14.8992 8.71103 15.3091C8.52874 15.698 8.41211 16.221 8.41211 16.6493C8.41211 16.9079 8.39635 16.966 8.29995 17.0624C8.07815 17.2842 7.7271 17.162 7.67045 16.8432C7.65811 16.774 7.66638 16.5183 7.68872 16.275C7.79499 15.1191 8.40557 14.1255 9.30389 13.6466C9.66394 13.4547 9.87574 13.43 10.01 13.5642ZM4.77805 17.7054C4.858 17.7361 4.98569 17.9522 4.98569 18.0568C4.98569 18.0922 4.8612 18.2731 4.70902 18.4588C3.84515 19.5129 3.48593 21.2448 3.91089 22.3069C4.05489 22.6669 4.05544 22.7689 3.91414 22.9101C3.70152 23.1228 3.44504 23.0431 3.27751 22.7123C3.09888 22.3595 3.01792 22.0224 2.98992 21.5147C2.91833 20.2167 3.42763 18.7147 4.2195 17.8882C4.42216 17.6767 4.57379 17.6271 4.77805 17.7054ZM23.2951 17.8882C24.4201 19.0623 24.8836 21.4356 24.2371 22.7123C24.0696 23.0431 23.8131 23.1228 23.6005 22.9101C23.4592 22.7689 23.4597 22.6669 23.6035 22.3075C24.0277 21.2472 23.6677 19.5107 22.8056 18.4588C22.6534 18.2731 22.5289 18.0922 22.5289 18.0568C22.5289 17.9622 22.6549 17.7347 22.7221 17.7076C22.7541 17.6948 22.8506 17.6826 22.9365 17.6807C23.065 17.6777 23.1288 17.7146 23.2951 17.8882ZM7.22099 21.947C7.44476 22.0627 7.47327 22.3222 7.2892 22.568C6.92527 23.054 6.7577 23.6378 6.75884 24.4157C6.76026 25.3858 7.05301 26.1725 7.63769 26.7772C7.95936 27.1099 7.99783 27.1971 7.90212 27.3768C7.70604 27.745 7.33055 27.6193 6.85208 27.0254C5.92923 25.8799 5.72511 23.961 6.3834 22.6188C6.55874 22.2613 6.88365 21.8801 7.01312 21.8801C7.05639 21.8801 7.14991 21.9102 7.22099 21.947ZM20.7478 22.046C20.9753 22.2515 21.262 22.8207 21.3892 23.3192C21.7111 24.5807 21.4149 26.0915 20.6626 27.0254C20.1802 27.6241 19.8089 27.7454 19.6086 27.3696C19.5189 27.201 19.5874 27.054 19.8986 26.7474C20.4496 26.2044 20.7544 25.3754 20.7558 24.4157C20.7569 23.6378 20.5894 23.054 20.2254 22.568C20.0399 22.3202 20.0755 22.0629 20.3132 21.9329C20.466 21.8494 20.5561 21.8728 20.7478 22.046ZM23.5411 27.5019C23.6642 27.6701 23.7625 28.1162 23.7618 28.5027C23.7595 29.6511 23.0336 30.9004 22.1006 31.3615C21.8074 31.5065 21.7594 31.5175 21.6253 31.4708C21.4588 31.4127 21.3868 31.3103 21.3868 31.1315C21.3868 30.9486 21.4683 30.834 21.6532 30.7568C22.4886 30.4078 23.1614 29.1239 22.9853 28.2149C22.9553 28.0601 22.9203 27.8772 22.9075 27.8084C22.8702 27.6077 22.928 27.4711 23.0817 27.3966C23.2584 27.311 23.4302 27.3504 23.5411 27.5019ZM4.53308 27.458C4.6377 27.5627 4.63734 27.6766 4.53062 28.2149C4.35121 29.12 5.02526 30.4074 5.86148 30.7568C6.21303 30.9036 6.233 31.351 5.89328 31.4694C5.76888 31.5128 5.71186 31.5034 5.49431 31.4038C4.66589 31.0245 4.00925 30.1017 3.79608 29.017C3.69101 28.4821 3.80138 27.677 4.01172 27.4446C4.11757 27.3276 4.41024 27.3352 4.53308 27.458Z" fill="black"/>
</svg>
