<svg width="35" height="35" viewBox="0 0 35 35" fill="none" xmlns="http://www.w3.org/2000/svg">
<path fill-rule="evenodd" clip-rule="evenodd" d="M17.8425 0.109521C17.0708 0.275316 16.3893 0.674505 15.6533 1.39206C14.4569 2.55846 13.4236 4.60624 12.8306 6.9861C12.5923 7.94246 12.6027 8.1219 12.9087 8.33349C12.9983 8.39546 13.1621 8.44611 13.2727 8.44611C13.6214 8.44611 13.777 8.2042 13.9977 7.3198C14.8603 3.86097 16.5519 1.47513 18.311 1.23625C18.7227 1.18033 19.4189 1.33818 19.8419 1.58332C22.1503 2.921 23.7973 7.56522 23.7973 12.7369C23.7973 18.6543 21.6685 23.6942 18.9543 24.2024C17.6568 24.4453 16.267 23.3966 15.1757 21.3511L14.877 20.791L17.0219 20.7724L19.1669 20.7538V17.9411V15.1285H16.3171H13.4673V14.8928C13.4673 14.2753 13.093 13.9185 12.617 14.0824C12.3345 14.1796 12.2562 14.3294 12.2562 14.7718V15.1278L6.14697 15.1457L0.0377595 15.1637L0.0191646 17.9598L0.000498981 20.7559L1.47968 20.756L2.95878 20.7561L8.03495 25.7668C10.8269 28.5226 13.1111 30.7858 13.1111 30.796C13.1111 30.8063 10.1611 30.8147 6.55556 30.8147H0L0.0188797 32.9073L0.0377595 35H12.2206C23.8471 35 24.4229 34.9941 24.8308 34.8706C26.2933 34.4278 27.354 33.3912 27.8292 31.9401C27.9382 31.6073 27.9598 31.207 27.9841 29.0737L28.0124 26.5942H24.6226H21.233V26.8608C21.233 27.2646 21.0464 27.9061 20.7582 28.4934C20.405 29.2129 19.6274 29.9768 18.8819 30.3364C18.342 30.597 17.4755 30.8147 16.979 30.8147C16.716 30.8147 16.5703 30.6782 11.6682 25.8378C8.89601 23.1006 6.62787 20.8373 6.62787 20.8084C6.62787 20.7795 8.182 20.7559 10.0814 20.7559H13.5351L13.9216 21.5472C14.4752 22.6807 14.9593 23.3742 15.7021 24.0979C16.6762 25.0469 17.5216 25.4277 18.6326 25.4176C21.6235 25.3904 24.0813 21.5858 24.8342 15.8175C24.9947 14.5882 25.0475 12.1397 24.9426 10.7919C24.6826 7.44937 23.7823 4.47364 22.4244 2.46856C21.9044 1.70064 20.9566 0.800696 20.3251 0.475086C19.4846 0.0417123 18.6976 -0.0742108 17.8425 0.109521ZM21.5536 0.224881C25.125 3.04304 26.8342 10.8525 25.4007 17.802C24.7086 21.1572 23.3702 23.7585 21.5892 25.2101L21.2686 25.4714L25.2583 25.4512L29.248 25.431L29.7196 25.2509C30.4397 24.9759 30.8346 24.7214 31.4457 24.1382C33.2595 22.4077 34.5084 19.1544 34.9179 15.0934C35.0407 13.8756 35.0231 11.3647 34.8826 10.064C34.3305 4.95225 32.3556 1.16281 29.754 0.223053L29.248 0.0403055L25.2583 0.0201173L21.2686 0L21.5536 0.224881ZM0.00213725 11.2246V14.0066L5.18517 13.9873L10.3682 13.9679L10.7918 13.7569C11.3582 13.4747 11.8691 12.9572 12.1415 12.3896C12.3435 11.9688 12.363 11.8658 12.363 11.2246C12.363 10.5843 12.3433 10.4802 12.1431 10.064C11.866 9.48772 11.4017 9.01397 10.8207 8.71446L10.3682 8.48128L5.18517 8.46194L0.00213725 8.44259V11.2246ZM15.3355 8.58158C14.5917 8.85219 14.0581 9.35161 13.6945 10.1178C13.5266 10.4713 13.503 10.6081 13.503 11.2246C13.503 11.8705 13.5217 11.967 13.7316 12.4046C14.0084 12.9815 14.5157 13.4921 15.0871 13.7686C15.462 13.9502 15.566 13.9675 16.2815 13.9677C16.984 13.9679 17.1076 13.9483 17.475 13.7783C18.6251 13.2461 19.3117 11.9974 19.1112 10.8028C18.957 9.88353 18.329 9.06553 17.475 8.67141C16.9223 8.41628 15.907 8.37366 15.3355 8.58158Z" fill="#163EE1"/>
<path fill-rule="evenodd" clip-rule="evenodd" d="M17.6273 0.0840461C16.8649 0.249962 16.1916 0.649442 15.4645 1.36752C14.2825 2.53477 13.2616 4.58405 12.6758 6.96565C12.4404 7.92271 12.4507 8.10228 12.753 8.31402C12.8414 8.37603 13.0033 8.42672 13.1126 8.42672C13.457 8.42672 13.6108 8.18464 13.8288 7.29959C14.681 3.83824 16.3522 1.45065 18.09 1.2116C18.4968 1.15564 19.1846 1.3136 19.6025 1.55892C21.8831 2.89758 23.5102 7.54519 23.5102 12.7207C23.5102 18.6424 21.4071 23.6859 18.7256 24.1945C17.4438 24.4376 16.0707 23.3881 14.9926 21.3411L14.6975 20.7807L16.8166 20.762L18.9356 20.7434V17.9287V15.114H16.1202H13.3049V14.8781C13.3049 14.2602 12.9351 13.9031 12.4647 14.0671C12.1857 14.1644 12.1083 14.3143 12.1083 14.7571V15.1133L6.07281 15.1312L0.0373039 15.1492L0.0189333 17.9473L0.000492961 20.7455L1.46182 20.7456L2.92308 20.7457L7.93801 25.76C10.6962 28.5179 12.9529 30.7828 12.9529 30.793C12.9529 30.8032 10.0385 30.8116 6.47646 30.8116H0L0.018652 32.9058L0.0373039 35H12.0731C23.5594 35 24.1282 34.9941 24.5312 34.8705C25.9761 34.4274 27.024 33.39 27.4935 31.9379C27.6012 31.6048 27.6225 31.2043 27.6465 29.0694L27.6744 26.5881H24.3256H20.9768V26.8548C20.9768 27.259 20.7925 27.901 20.5078 28.4887C20.1589 29.2086 19.3906 29.9731 18.6541 30.333C18.1207 30.5938 17.2647 30.8116 16.7741 30.8116C16.5143 30.8116 16.3704 30.675 11.5274 25.8311C8.78868 23.0919 6.54791 20.827 6.54791 20.798C6.54791 20.7691 8.08328 20.7455 9.95981 20.7455H13.3718L13.7536 21.5374C14.3006 22.6717 14.7789 23.3657 15.5127 24.0899C16.475 25.0396 17.3102 25.4207 18.4078 25.4106C21.3627 25.3834 23.7908 21.576 24.5346 15.8035C24.6931 14.5733 24.7453 12.123 24.6417 10.7742C24.3848 7.42925 23.4954 4.45136 22.1539 2.44481C21.6401 1.67633 20.7038 0.775726 20.0799 0.449878C19.2495 0.0161879 18.472 -0.0998199 17.6273 0.0840461ZM0.00211146 11.2072V13.9913L5.12261 13.9719L10.2431 13.9526L10.6616 13.7414C11.2212 13.459 11.7259 12.9411 11.9951 12.3731C12.1945 11.952 12.2139 11.8489 12.2139 11.2072C12.2139 10.5664 12.1944 10.4623 11.9966 10.0458C11.7229 9.46909 11.2641 8.995 10.6901 8.69527L10.2431 8.46192L5.12261 8.44256L0.00211146 8.4232V11.2072Z" fill="black"/>
</svg>
