<svg width="32" height="35" viewBox="0 0 32 35" fill="none" xmlns="http://www.w3.org/2000/svg">
<path fill-rule="evenodd" clip-rule="evenodd" d="M10.3758 0.0509816C9.16025 0.294984 8.08225 1.34073 7.79165 2.55778C7.73211 2.80707 7.71032 3.43746 7.69672 5.30302L7.67903 7.72471L7.97568 7.82621C8.51443 8.01056 9.98314 8.35143 10.9421 8.51464C15.1003 9.22238 18.991 9.02546 22.8213 7.91348L23.4011 7.74515L23.4038 7.14706C23.4184 3.84866 23.3954 2.90334 23.2909 2.49457C23.1416 1.91099 22.862 1.44121 22.3815 0.966692C21.9197 0.51067 21.5137 0.271846 20.9208 0.107559C20.5258 -0.00187508 20.4181 -0.0040324 15.5546 0.00179259C12.8249 0.0050287 10.4944 0.0271422 10.3758 0.0509816ZM8.32016 9.33801C7.77218 9.84312 7.6265 10.3395 7.66652 11.5649C7.70918 12.8703 7.90437 13.6268 8.38504 14.3499C8.52139 14.555 8.75186 14.8252 8.89716 14.9504C9.12368 15.1455 9.18927 15.2509 9.35765 15.6907C10.107 17.6474 11.2337 18.9275 12.9647 19.7888C13.9403 20.2742 14.3111 20.3564 15.5266 20.3564C16.3969 20.3564 16.583 20.3406 16.9828 20.2329C17.581 20.0717 18.5055 19.6179 19.1099 19.1886C20.2997 18.3435 21.1206 17.2363 21.6988 15.6972C21.8539 15.2844 21.919 15.1865 22.2826 14.8197C23.1093 13.9859 23.4367 12.8933 23.3933 11.1135C23.3747 10.3504 23.3678 10.3093 23.2016 9.97256C23.1067 9.78044 22.9112 9.50742 22.7671 9.36584L22.5049 9.10836L22.2923 9.1816C22.1754 9.22189 21.8491 9.31191 21.5673 9.38176C21.2855 9.45155 21.0246 9.53132 20.9875 9.55909C20.9037 9.62182 20.8969 10.0817 20.9798 10.0817C21.0127 10.0817 21.1947 10.1558 21.3844 10.2463C21.8887 10.487 21.9127 10.5527 21.8753 11.5899C21.8322 12.7863 21.6554 13.3289 21.1489 13.8192L20.9375 14.0239L20.2141 13.8372C19.3839 13.6228 18.088 13.3979 17.2255 13.3186C16.3539 13.2384 14.6671 13.252 13.7587 13.3465C12.8934 13.4366 11.3967 13.7212 10.676 13.9326L10.2211 14.0661L10.0719 13.9599C9.44789 13.5156 9.13323 12.5618 9.17174 11.2312C9.18851 10.6517 9.19531 10.6215 9.34347 10.467C9.42826 10.3786 9.64065 10.2528 9.8154 10.1874L10.1331 10.0686V9.80649C10.1331 9.56524 10.1213 9.54156 9.98476 9.50867C9.90321 9.48898 9.54745 9.39448 9.19418 9.29864L8.55197 9.12432L8.32016 9.33801ZM21.3456 21.3749C20.7149 22.2974 20.0276 23.2459 19.3089 24.1858C18.2492 25.5715 15.5632 28.9083 15.5199 28.8928C15.4679 28.8743 13.4356 26.3435 12.2268 24.792C11.365 23.686 9.89328 21.6675 9.49373 21.0434C9.38894 20.8797 9.27325 20.7609 9.21872 20.7609C9.06473 20.7609 7.732 21.1643 6.89465 21.4644C5.24872 22.0542 2.7848 23.2017 1.91483 23.7836C1.32235 24.1799 0.660457 24.9021 0.380911 25.4574C-0.00645089 26.2268 -0.0143793 26.3145 0.00638568 29.6017C0.0241843 32.4286 0.0273124 32.5006 0.14748 32.8954C0.399303 33.7228 0.849554 34.3702 1.39575 34.6902C1.95921 35.0203 1.01956 34.9997 15.5083 34.9997C25.0964 34.9997 28.814 34.9831 29.0212 34.9391C29.898 34.753 30.5557 34.0511 30.9099 32.9232C31.0248 32.5573 31.029 32.4555 31.0477 29.6062C31.0709 26.058 31.0672 26.0295 30.4765 25.1027C29.9619 24.2951 29.2915 23.7858 27.689 22.985C25.764 22.0231 24.0232 21.3459 22.0709 20.7994L21.7923 20.7215L21.3456 21.3749ZM25.2942 25.9964C25.5645 26.1889 25.6125 26.3506 25.6125 27.0686V27.7185L26.2192 27.7197C26.9286 27.7211 27.2133 27.8151 27.391 28.1064C27.5609 28.3849 27.5786 28.5914 27.4563 28.868C27.2865 29.2517 27.1603 29.3052 26.3521 29.3366L25.6569 29.3635L25.6482 30.0107C25.6376 30.7904 25.5649 30.9643 25.1661 31.1628C24.8772 31.3066 24.6761 31.2944 24.3823 31.1151C24.0952 30.9401 23.997 30.6504 23.9956 29.9747L23.9944 29.3993L23.3239 29.3814C22.748 29.3661 22.6325 29.3478 22.5048 29.2523C21.9969 28.8726 21.9872 28.233 22.4842 27.8938C22.6449 27.7841 22.726 27.7724 23.3282 27.7724H23.9944V27.1191C23.9944 26.5482 24.0092 26.4394 24.1117 26.2571C24.3426 25.8463 24.9083 25.7216 25.2942 25.9964Z" fill="#163EE1"/>
<path fill-rule="evenodd" clip-rule="evenodd" d="M10.3758 0.0509816C9.16025 0.294984 8.08225 1.34073 7.79165 2.55778C7.73211 2.80707 7.71032 3.43746 7.69672 5.30302L7.67903 7.72471L7.97568 7.82621C8.51443 8.01056 9.98314 8.35143 10.9421 8.51464C15.1003 9.22238 18.991 9.02546 22.8213 7.91348L23.4011 7.74515L23.4038 7.14706C23.4184 3.84866 23.3954 2.90334 23.2909 2.49457C23.1416 1.91099 22.862 1.44121 22.3815 0.966692C21.9197 0.51067 21.5137 0.271846 20.9208 0.107559C20.5258 -0.00187508 20.4181 -0.0040324 15.5546 0.00179259C12.8249 0.0050287 10.4944 0.0271422 10.3758 0.0509816ZM21.3456 21.3749C20.7149 22.2974 20.0276 23.2459 19.3089 24.1858C18.2492 25.5715 15.5632 28.9083 15.5199 28.8928C15.4679 28.8743 13.4356 26.3435 12.2268 24.792C11.365 23.686 9.89329 21.6675 9.49373 21.0434C9.38894 20.8797 9.27325 20.7609 9.21872 20.7609C9.06473 20.7609 7.732 21.1643 6.89465 21.4644C5.24872 22.0542 2.7848 23.2017 1.91483 23.7836C1.32235 24.1799 0.660455 24.9021 0.38091 25.4574C-0.00645238 26.2268 -0.0143792 26.3145 0.00638581 29.6017C0.0241844 32.4286 0.0273141 32.5006 0.147482 32.8954C0.399305 33.7228 0.849554 34.3702 1.39575 34.6902C1.95921 35.0203 1.01956 34.9997 15.5083 34.9997C25.0964 34.9997 28.814 34.9831 29.0212 34.9391C29.898 34.753 30.5557 34.0511 30.9099 32.9232C31.0248 32.5573 31.029 32.4555 31.0477 29.6062C31.0709 26.058 31.0672 26.0295 30.4765 25.1027C29.9619 24.2951 29.2915 23.7858 27.689 22.985C25.764 22.0231 24.0232 21.3459 22.0709 20.7994L21.7923 20.7215L21.3456 21.3749ZM25.2942 25.9964C25.5645 26.1889 25.6125 26.3506 25.6125 27.0686V27.7185L26.2192 27.7197C26.9286 27.7211 27.2133 27.8151 27.391 28.1064C27.5609 28.3849 27.5786 28.5914 27.4563 28.868C27.2865 29.2517 27.1603 29.3052 26.3521 29.3366L25.6569 29.3635L25.6482 30.0107C25.6376 30.7904 25.5649 30.9643 25.1661 31.1628C24.8772 31.3066 24.6761 31.2944 24.3823 31.1151C24.0952 30.9401 23.997 30.6504 23.9956 29.9747L23.9944 29.3993L23.3239 29.3814C22.748 29.3661 22.6325 29.3478 22.5048 29.2523C21.9969 28.8726 21.9872 28.233 22.4842 27.8938C22.6449 27.7841 22.726 27.7724 23.3282 27.7724H23.9944V27.1191C23.9944 26.5482 24.0092 26.4394 24.1117 26.2571C24.3426 25.8463 24.9083 25.7216 25.2942 25.9964Z" fill="black"/>
</svg>
